<svg width="25" height="25" viewBox="0 0 25 25" fill="none" xmlns="http://www.w3.org/2000/svg">
<g clip-path="url(#clip0_13_2383)">
<path d="M19.1821 24.9999C18.1846 24.9062 17.203 24.687 16.2605 24.3475C13.6385 23.3841 11.211 21.9586 9.09359 20.1388C6.08786 17.705 3.5947 14.7011 1.75801 11.3004C0.952228 9.81348 0.383299 8.21038 0.0716665 6.5487C0.0117418 6.29283 0.00630415 6.02726 0.0556872 5.76916C0.10507 5.51106 0.208171 5.26618 0.358341 5.05038C1.47207 3.41026 2.76128 1.89602 4.20321 0.534387C4.36152 0.39113 4.53064 0.260273 4.7091 0.142976C4.77251 0.0866006 4.8465 0.0433641 4.92678 0.015781C5.00706 -0.0118022 5.09204 -0.0231858 5.17676 -0.0177036C5.26149 -0.0122213 5.34428 0.0100195 5.42032 0.0477178C5.49637 0.0854162 5.56415 0.137824 5.61973 0.201898C5.76736 0.326756 5.90031 0.467953 6.01602 0.622774C7.17749 2.21441 8.19739 3.90434 9.06409 5.67328C9.52361 6.63708 9.48567 6.80122 8.67622 7.51671C8.14502 7.98388 7.61805 8.45526 7.08685 8.91822C7.02646 8.96788 6.98333 9.03532 6.96365 9.11091C6.94396 9.1865 6.94872 9.26637 6.97723 9.3391C7.68786 11.7726 9.11038 13.9387 11.0624 15.5596C12.391 16.7048 13.9533 17.5478 15.6408 18.0302C15.7079 18.0587 15.7827 18.0638 15.853 18.0447C15.9234 18.0256 15.9852 17.9834 16.0287 17.925C16.4798 17.4157 16.9351 16.9149 17.382 16.4056C18.1577 15.5176 18.3263 15.467 19.3803 15.9847C21.0994 16.8236 22.7427 17.8093 24.2917 18.9309C25.1855 19.5748 25.2234 19.9452 24.4814 20.7532C23.0644 22.2832 21.4578 23.6268 19.7007 24.7516C19.5343 24.8472 19.361 24.9302 19.1821 24.9999Z" fill="#CE761D"/>
<path d="M13.3853 1.77613V0.0421241C19.1737 -0.197775 25.0464 4.86115 24.9831 11.5825H23.2251C23.2063 8.9846 22.163 6.49866 20.3213 4.66317C18.4796 2.82769 15.9877 1.79045 13.3853 1.77613Z" fill="#CE761D"/>
<path d="M20.5059 11.5952H18.7943C18.4486 8.35028 16.6863 6.54472 13.398 6.1954V4.49086C17.1585 4.37301 20.5986 7.67267 20.5059 11.5952Z" fill="#CE761D"/>
</g>
<defs>
<clipPath id="clip0_13_2383">
<rect width="25" height="25" fill="white"/>
</clipPath>
</defs>
</svg>
