<svg width="50" height="50" viewBox="0 0 50 50" fill="none" xmlns="http://www.w3.org/2000/svg">
<circle cx="25" cy="25" r="25" fill="#CE761D"/>
<g clip-path="url(#clip0_86_3)">
<path d="M26.1692 13.0116C26.7386 13.1588 27.3312 13.2866 27.8813 13.4609C29.6956 14.0167 31.3693 14.956 32.789 16.215C34.3074 17.5402 35.5126 19.186 36.3177 21.0336C36.7401 22.0073 37.0494 23.0262 37.2396 24.0704C37.2396 24.1246 37.2745 24.1789 37.29 24.2331V24.3803C37.29 24.3803 37.29 24.3803 37.29 24.3996C37.135 24.8219 36.9026 25.0272 36.5579 25.0078C36.1705 24.9807 35.9188 24.7521 35.8258 24.268C35.4548 22.2517 34.5808 20.3617 33.2848 18.7731C31.9888 17.1846 30.3127 15.949 28.4119 15.1808C27.6313 14.9038 26.836 14.6698 26.0298 14.4797C25.5727 14.3557 25.3364 14.1659 25.2977 13.825C25.2589 13.4842 25.4139 13.2285 25.84 13.0116H26.1692Z" fill="white"/>
<path d="M19.8903 23.5669C20.8161 25.7321 24.0233 29.1447 26.7309 30.3803C26.7966 30.2707 26.8717 30.167 26.9555 30.0704C27.5249 29.5088 28.0789 28.9316 28.6792 28.4048C29.0967 28.0328 29.6383 27.8305 30.1974 27.8377C30.7565 27.8448 31.2928 28.061 31.7006 28.4436C32.8729 29.5643 34.0169 30.7147 35.1325 31.8948C35.5208 32.2995 35.7446 32.8343 35.7603 33.3949C35.7761 33.9555 35.5826 34.5019 35.2177 34.9278C34.4699 35.7937 33.6718 36.615 32.8277 37.3875C31.9601 38.1815 30.891 38.3829 29.729 38.2822C27.5947 38.1002 25.7005 37.2364 23.8645 36.2177C21.6041 34.9672 19.5577 33.364 17.8025 31.4688C15.6255 29.2099 13.9145 26.5447 12.767 23.625C12.3348 22.5548 12.086 21.4195 12.031 20.2666C11.9884 19.7013 12.0649 19.1334 12.2558 18.5996C12.4466 18.0658 12.7475 17.578 13.1388 17.1679C13.805 16.4861 14.4519 15.7773 15.1724 15.1498C16.2841 14.1853 17.4965 14.193 18.5656 15.2001C19.7005 16.2653 20.7889 17.3809 21.8503 18.5197C22.238 18.9356 22.4536 19.4831 22.4536 20.0517C22.4536 20.6203 22.238 21.1677 21.8503 21.5836C21.2886 22.2189 20.6689 22.8038 20.0762 23.408L19.8903 23.5669ZM13.4371 20.1853C13.4642 20.4719 13.4874 20.7586 13.5184 21.0452C13.5184 21.1692 13.561 21.2892 13.5881 21.4093C13.9955 23.1338 14.6881 24.7781 15.6372 26.2744C18.029 30.2783 21.5261 33.5064 25.7083 35.5708C26.9894 36.2545 28.3873 36.692 29.8297 36.8607C30.2628 36.9238 30.7048 36.883 31.119 36.7416C31.5332 36.6001 31.9078 36.3621 32.2119 36.0472C32.7464 35.4856 33.2926 34.9394 33.8349 34.3855C33.9046 34.3158 33.9704 34.2383 34.0324 34.1647C34.1244 34.0716 34.1967 33.961 34.2451 33.8395C34.2934 33.7179 34.3169 33.5879 34.314 33.457C34.3111 33.3262 34.2819 33.1973 34.2282 33.078C34.1745 32.9587 34.0974 32.8514 34.0014 32.7625C33.556 32.2783 33.0834 31.8174 32.6147 31.3526C32.0414 30.7754 31.4527 30.1905 30.8833 29.625C30.7975 29.5261 30.6921 29.4461 30.5737 29.3903C30.4553 29.3344 30.3265 29.3039 30.1957 29.3006C30.0648 29.2973 29.9347 29.3214 29.8136 29.3712C29.6926 29.4211 29.5833 29.4956 29.4927 29.5901C29.4075 29.6637 29.3261 29.7451 29.2409 29.8264C28.6754 30.3919 28.1137 30.9613 27.5443 31.5191C27.3799 31.7086 27.1545 31.8348 26.9069 31.8758C26.6594 31.9168 26.4053 31.8701 26.1886 31.7438C25.8438 31.5695 25.4991 31.3952 25.166 31.1976C23.6956 30.3 22.3634 29.1936 21.2112 27.9129C20.1461 26.82 19.2633 25.5632 18.5966 24.1905C18.2596 23.4468 18.3293 23.0827 18.9142 22.5171C19.4991 21.9516 20.0995 21.3551 20.665 20.7741C20.7686 20.6864 20.8518 20.5773 20.9089 20.4542C20.966 20.3311 20.9956 20.197 20.9956 20.0613C20.9956 19.9257 20.966 19.7916 20.9089 19.6685C20.8518 19.5454 20.7686 19.4362 20.665 19.3486C20.6108 19.2866 20.5527 19.2247 20.4946 19.1666C19.5649 18.2318 18.634 17.2996 17.7018 16.3699C17.0936 15.7618 16.5668 15.7618 15.9548 16.3699C15.4203 16.8967 14.9051 17.439 14.359 17.9542C14.0493 18.2343 13.8059 18.5799 13.6464 18.9658C13.487 19.3517 13.4154 19.7683 13.4371 20.1853Z" fill="white"/>
<path d="M25.933 17.5939C26.3383 17.6796 26.7391 17.7856 27.1337 17.9116C28.4653 18.3515 29.6625 19.1243 30.6115 20.1568C31.5606 21.1892 32.2301 22.447 32.5566 23.8109C32.5992 23.9775 32.6341 24.1479 32.6651 24.3144C32.7098 24.5008 32.6797 24.6973 32.5812 24.8617C32.4827 25.0261 32.3237 25.1453 32.1383 25.1937C31.956 25.2386 31.7634 25.2102 31.6019 25.1146C31.4404 25.019 31.3228 24.8638 31.2745 24.6824C31.1544 24.2951 31.0924 23.8574 30.9414 23.47C30.5415 22.333 29.8466 21.3227 28.9277 20.5426C28.0088 19.7626 26.8991 19.2409 25.7122 19.031C25.6094 19.0212 25.5099 18.9893 25.4205 18.9377C25.3311 18.886 25.2539 18.8157 25.194 18.7316C25.1341 18.6475 25.093 18.5515 25.0735 18.4501C25.054 18.3487 25.0565 18.2443 25.0808 18.144C25.133 17.9652 25.2478 17.8111 25.4043 17.7101C25.5609 17.6091 25.7485 17.5679 25.933 17.5939Z" fill="white"/>
</g>
<defs>
<clipPath id="clip0_86_3">
<rect width="25.29" height="25.3055" fill="white" transform="translate(12 13)"/>
</clipPath>
</defs>
</svg>
