<svg width="21" height="28" viewBox="0 0 21 28" fill="none" xmlns="http://www.w3.org/2000/svg">
<g clip-path="url(#clip0_13_2382)">
<path d="M10.7204 27.9961H10.2836C10.0726 27.86 9.87063 27.7104 9.67911 27.548C7.59685 25.6095 5.72146 23.4604 4.08302 21.1354C2.54831 19.0467 1.363 16.7231 0.573271 14.2552C-0.206673 11.6838 -0.269058 9.11643 0.779967 6.60356C1.38382 5.0492 2.35603 3.66436 3.61326 2.56781C4.87049 1.47127 6.3752 0.695739 7.99833 0.307747C8.58329 0.15191 9.19166 0.0895752 9.79222 -0.0117188H11.2117C11.7109 0.0661997 12.2217 0.116847 12.717 0.225933C15.4201 0.836093 17.7779 2.47668 19.288 4.79814C20.798 7.1196 21.341 9.93839 20.8011 12.6539C20.4042 14.6185 19.6988 16.508 18.7109 18.2524C16.7613 21.677 14.298 24.783 11.4067 27.4623C11.1894 27.6544 10.9601 27.8327 10.7204 27.9961ZM10.6697 16.3317C11.8282 16.3025 12.9519 15.9302 13.8983 15.262C14.8447 14.5938 15.571 13.6598 15.9853 12.5785C16.3995 11.4973 16.483 10.3174 16.225 9.18874C15.967 8.06004 15.3792 7.03332 14.5363 6.23885C13.6933 5.44437 12.6331 4.91794 11.4902 4.72635C10.3473 4.53475 9.17322 4.68662 8.11684 5.16268C7.06047 5.63875 6.16943 6.41756 5.55679 7.40031C4.94416 8.38307 4.63752 9.52547 4.67579 10.6826C4.72674 12.2237 5.38534 13.6823 6.50806 14.7405C7.63079 15.7986 9.12665 16.3706 10.6697 16.3317Z" fill="#CE761D"/>
</g>
<defs>
<clipPath id="clip0_13_2382">
<rect width="21" height="28" fill="white"/>
</clipPath>
</defs>
</svg>
