<svg width="22" height="17" viewBox="0 0 22 17" fill="none" xmlns="http://www.w3.org/2000/svg">
<g clip-path="url(#clip0_3_97)">
<path d="M22 4.77759V15.192C21.9904 15.2029 21.9822 15.2152 21.9756 15.2284C21.6858 16.4291 20.976 17 19.7759 17H2.14014C1.86059 17.01 1.58188 16.9628 1.3201 16.8609C1.05833 16.7591 0.818673 16.6047 0.614954 16.4067C0.297998 16.0737 0.083953 15.6509 0 15.192V4.77759C0.0330118 4.78911 0.064787 4.80411 0.0948176 4.82237L9.00751 10.949C10.3404 11.867 11.6596 11.867 12.9952 10.949C15.65 9.12415 18.3049 7.29932 20.9597 5.47449C21.3038 5.23939 21.6533 5.02388 22 4.77759Z" fill="#CE761D"/>
<path d="M0 2.38458V1.82482C0.0352173 1.69608 0.0650206 1.57013 0.105656 1.44418C0.250467 1.00691 0.529865 0.63065 0.90116 0.372894C1.27245 0.115138 1.71522 -0.00993485 2.16181 0.0167855H19.8409C19.9032 0.0167855 19.9682 0.0167855 20.0333 0.0167855C20.4474 0.0299107 20.8478 0.17373 21.1805 0.428908C21.5132 0.684086 21.7623 1.03839 21.8944 1.44418C21.935 1.56733 21.9648 1.69607 22 1.82202V2.38178C21.8827 2.95432 21.553 3.45664 21.0816 3.78119C18.1144 5.815 15.1489 7.85253 12.1852 9.8938C11.8395 10.1583 11.4207 10.3011 10.9905 10.3011C10.5603 10.3011 10.1415 10.1583 9.79584 9.8938L0.921076 3.79239C0.692305 3.64565 0.495466 3.4515 0.342993 3.22219C0.190521 2.99289 0.0857215 2.73341 0.0352187 2.46015C0.0250962 2.43419 0.0133304 2.40895 0 2.38458Z" fill="#CE761D"/>
</g>
<defs>
<clipPath id="clip0_3_97">
<rect width="22" height="17" fill="white"/>
</clipPath>
</defs>
</svg>
