<svg width="83" height="81" viewBox="0 0 83 81" fill="none" xmlns="http://www.w3.org/2000/svg">
<g clip-path="url(#clip0_16_3895)">
<path d="M54.0635 16.8147C56.0627 19.287 57.3415 21.8194 57.7871 24.6957C58.8259 31.411 56.6098 36.8658 51.2703 41.0487C50.4462 41.6928 49.6544 41.6258 49.135 40.9587C48.6156 40.2915 48.8049 39.4605 49.6498 38.8118C53.5072 35.8478 55.4209 31.928 55.2801 27.0757C55.2057 24.1392 54.1491 21.3123 52.2791 19.0469L48.3548 22.9713C49.6914 25.0489 50.1715 27.3966 49.4467 29.9312C48.9187 31.8391 47.712 33.4884 46.0532 34.5689C44.3958 35.6752 42.394 36.1443 40.4175 35.8897C38.4411 35.6351 36.6236 34.674 35.3005 33.1838C33.9942 31.7197 33.2493 29.8398 33.1982 27.8783C33.147 25.9167 33.793 24.0006 35.0212 22.4704C36.3261 20.8455 38.194 19.7702 40.2544 19.4576C42.3148 19.1451 44.4175 19.6181 46.1456 20.7829L50.0699 16.8378C48.2826 15.3598 46.1291 14.3923 43.8372 14.0376C36.2816 12.8488 29.3978 17.5603 27.9712 25.0443C26.9417 30.4576 28.7376 34.9706 32.9436 38.5094C33.1191 38.6572 33.3153 38.7795 33.4907 38.9295C34.1832 39.5067 34.3333 40.2823 33.8947 40.9056C33.4145 41.5981 32.6274 41.6974 31.8425 41.1364C29.9883 39.8507 28.4422 38.1698 27.3156 36.2148C24.0838 30.5338 23.9499 24.7488 27.3156 19.1531C30.7183 13.4998 35.9377 10.8427 42.5352 11.1059C45.9009 11.2398 48.925 12.461 51.6097 14.5062C51.7897 14.6447 51.9767 14.774 52.3022 15.0187C52.7223 14.557 53.1771 14.1184 53.5488 13.6198C53.6744 13.3814 53.7049 13.1042 53.6342 12.8442C53.3364 11.526 53.0247 10.2102 52.6669 8.90596C52.5644 8.60554 52.5518 8.28175 52.6305 7.97424C52.7092 7.66673 52.8759 7.38885 53.1102 7.17463C55.3124 4.977 57.4962 2.76551 59.7146 0.579414C60.7303 -0.422449 61.8707 -0.0946511 62.2539 1.2858C62.5979 2.56236 62.9464 3.84355 63.2211 5.13397C63.2446 5.34495 63.3401 5.5414 63.4914 5.69025C63.6428 5.83909 63.8408 5.93123 64.0522 5.95116C65.3126 6.23279 66.5661 6.55828 67.8126 6.89762C69.2946 7.29698 69.5947 8.42581 68.5051 9.52462C66.356 11.6946 64.1861 13.8437 62.0415 16.009C61.8229 16.2587 61.535 16.4378 61.2145 16.5237C60.8939 16.6096 60.5551 16.5984 60.2409 16.4915C59.1098 16.1637 57.944 15.949 56.8198 15.6027C56.0765 15.3719 55.5179 15.4342 55.0238 16.0852C54.7861 16.3738 54.4214 16.5492 54.0635 16.8147ZM44.2688 22.9274C41.6788 21.4777 38.6593 22.1426 37.0065 24.4279C36.2046 25.535 35.8414 26.9 35.9872 28.2593C36.1331 29.6185 36.7775 30.8754 37.796 31.7872C38.8136 32.7004 40.134 33.2034 41.5013 33.1987C42.8686 33.194 44.1855 32.682 45.1968 31.7618C47.1405 30.012 47.6045 26.9141 46.0879 24.8019C45.9115 25.0803 45.7164 25.3464 45.5038 25.5983C44.5158 26.6048 43.5555 27.6459 42.4913 28.5646C42.2861 28.7221 42.0494 28.8336 41.7972 28.8913C41.545 28.9491 41.2834 28.9518 41.0301 28.8994C40.6469 28.7816 40.229 28.2068 40.1644 27.7821C40.1044 27.392 40.3953 26.8449 40.7069 26.5194C41.8496 25.3028 43.0546 24.1486 44.2757 22.9274H44.2688ZM59.9662 4.21059C58.5373 5.63952 57.0991 7.07306 55.6748 8.52045C55.6176 8.57893 55.5734 8.64887 55.5452 8.72566C55.5169 8.80245 55.5053 8.88436 55.5109 8.96598C55.661 9.63774 55.8526 10.3003 56.0696 11.1151C57.1938 9.96092 58.1172 8.85056 59.2206 7.95258C60.541 6.89531 60.975 5.77803 59.9847 4.21059H59.9662ZM65.0194 9.07217C64.2692 8.87364 63.6505 8.68897 63.0203 8.55277C62.9285 8.53386 62.8337 8.53457 62.7422 8.55486C62.6507 8.57515 62.5646 8.61456 62.4894 8.6705C61.0235 10.111 59.5784 11.5699 58.0618 13.0889C58.7935 13.2758 59.3983 13.4513 60.0124 13.5736C60.1169 13.5955 60.2248 13.5955 60.3292 13.5737C60.4337 13.5518 60.5326 13.5086 60.6195 13.4467C62.0877 12.0316 63.5282 10.5911 65.0379 9.07217H65.0194Z" fill="white"/>
<path d="M29.047 44.2667C29.0373 47.1941 27.8711 49.9991 25.8026 52.0707C23.7341 54.1422 20.9308 55.3124 18.0034 55.3264C15.0738 55.3265 12.2635 54.1663 10.187 52.0998C8.11051 50.0333 6.9369 47.2285 6.92287 44.299C6.92044 42.8423 7.20525 41.3995 7.76102 40.053C8.31678 38.7065 9.13258 37.4828 10.1617 36.4519C11.1909 35.4211 12.4132 34.6032 13.7588 34.0452C15.1043 33.4872 16.5467 33.2 18.0034 33.2C20.9333 33.2098 23.7401 34.3796 25.8097 36.4535C27.8794 38.5275 29.0433 41.3367 29.047 44.2667ZM9.69531 44.299C9.70874 46.4974 10.5927 48.601 12.1538 50.149C13.7148 51.6971 15.8257 52.5635 18.0242 52.5586C20.2222 52.5446 22.3252 51.6603 23.8727 50.0993C25.4203 48.5383 26.2864 46.4278 26.2815 44.2297C26.2686 42.0305 25.3846 39.926 23.823 38.3774C22.2614 36.8288 20.1496 35.9623 17.9503 35.9678C15.7523 35.9825 13.6495 36.8674 12.1024 38.4288C10.5553 39.9902 9.68976 42.1009 9.69531 44.299Z" fill="white"/>
<path d="M53.9343 44.1812C53.9472 42.7235 54.2477 41.2827 54.8184 39.9414C55.3892 38.6 56.219 37.3845 57.2604 36.3644C58.3017 35.3442 59.5341 34.5396 60.8869 33.9966C62.2397 33.4536 63.6864 33.1829 65.1441 33.2C71.1945 33.2415 76.0976 38.2647 76.0584 44.3844C76.0214 50.4302 70.9798 55.3795 64.8994 55.3264C61.9695 55.2959 59.1709 54.1062 57.1159 52.0175C55.061 49.9288 53.917 47.1113 53.9343 44.1812ZM65.0402 35.9678C62.8571 35.9595 60.7584 36.8107 59.1978 38.3372C57.6371 39.8637 56.7398 41.9431 56.6998 44.1258C56.6839 45.2214 56.8849 46.3093 57.2911 47.327C57.6973 48.3446 58.3007 49.2719 59.0666 50.0554C59.8326 50.8389 60.7459 51.4632 61.754 51.8924C62.7622 52.3216 63.8453 52.5472 64.9409 52.5563C67.1236 52.5651 69.2222 51.7149 70.7832 50.1893C72.3443 48.6637 73.2424 46.5852 73.2836 44.4028C73.3001 43.3067 73.0995 42.2181 72.6935 41.1998C72.2874 40.1814 71.6839 39.2535 70.9176 38.4695C70.1514 37.6854 69.2376 37.0607 68.2289 36.6314C67.2201 36.202 66.1364 35.9765 65.0402 35.9678Z" fill="white"/>
<path d="M41.5265 40.1161C44.4552 40.1314 47.2588 41.3055 49.3243 43.3818C51.3899 45.4582 52.5494 48.2679 52.5493 51.1966C52.5365 54.1243 51.3676 56.9283 49.297 58.998C47.2264 61.0678 44.4218 62.2356 41.4942 62.2471C38.5662 62.2423 35.7592 61.0787 33.6865 59.0107C31.6137 56.9427 30.4437 54.1384 30.4321 51.2105C30.4303 49.753 30.716 48.3095 31.2729 46.9627C31.8298 45.6158 32.647 44.3921 33.6775 43.3615C34.7081 42.3309 35.9319 41.5138 37.2787 40.9569C38.6256 40.4 40.0691 40.1143 41.5265 40.1161ZM41.4826 59.4747C43.668 59.4749 45.7655 58.6142 47.3209 57.0791C48.8764 55.544 49.7645 53.458 49.793 51.2728C49.8037 50.1764 49.5973 49.0888 49.1857 48.0725C48.7742 47.0563 48.1656 46.1315 47.395 45.3515C46.6245 44.5715 45.7072 43.9517 44.696 43.5278C43.6849 43.1039 42.5998 42.8843 41.5034 42.8816C39.305 42.8853 37.1975 43.7599 35.6426 45.314C34.0876 46.8681 33.2118 48.9751 33.2069 51.1735C33.2093 53.37 34.0812 55.4762 35.6319 57.0317C37.1827 58.5872 39.2862 59.4655 41.4826 59.4747Z" fill="white"/>
<path d="M40.0216 63.5814C45.8458 63.6945 50.1234 64.0177 54.1932 65.5505C55.452 66.0411 56.6484 66.6788 57.7574 67.4504C58.9647 68.2699 59.5211 69.5003 59.4887 71.0169C59.4356 73.4939 59.4772 75.9731 59.4726 78.4501C59.4726 79.5674 58.9924 80.1884 58.1337 80.2161C57.2749 80.2438 56.714 79.5882 56.7117 78.4478C56.7117 76.0562 56.6655 73.6647 56.7325 71.2755C56.7579 70.3013 56.4047 69.5995 55.5782 69.244C54.0039 68.5515 52.4249 67.7897 50.7674 67.418C44.0614 65.9083 37.3439 65.9499 30.6979 67.8105C29.4975 68.1452 28.3686 68.7731 27.2467 69.3479C26.5381 69.7103 26.2426 70.3405 26.2633 71.1947C26.3211 73.6139 26.2864 76.0424 26.2818 78.4547C26.2818 79.5558 25.7832 80.1883 24.9291 80.2068C24.0749 80.2253 23.5209 79.5743 23.5209 78.4247C23.5209 75.9754 23.5671 73.5262 23.5024 71.0792C23.4586 69.4149 24.1534 68.196 25.4346 67.2472C27.5007 65.7237 29.8945 64.9388 32.3599 64.5348C35.3955 64.0385 38.4635 63.7707 40.0216 63.5814Z" fill="white"/>
<path d="M16.563 27.6344C16.5913 21.7021 18.7315 15.9738 22.6 11.4763C26.4685 6.97876 31.8123 4.00606 37.6737 3.09101C42.3991 2.32692 46.9559 2.95019 51.3512 4.8108C52.3738 5.24478 52.7663 5.93501 52.4569 6.72219C52.1268 7.55784 51.3373 7.79561 50.2847 7.36624C43.1932 4.47146 36.2632 4.82696 29.8111 8.95676C22.2741 13.7722 18.9107 20.8452 19.4786 29.7881C19.5236 30.3445 19.3841 30.9003 19.0815 31.3694C18.8622 31.6603 18.1374 31.8449 17.7957 31.7018C17.5631 31.5872 17.357 31.4254 17.1904 31.2267C17.0239 31.0279 16.9006 30.7967 16.8285 30.5476C16.6161 29.6058 16.6369 28.6108 16.563 27.6344Z" fill="white"/>
<path d="M0.016388 67.6004C0.016388 66.4462 0.0625568 65.292 0.016388 64.1377C-0.062099 62.5495 0.616587 61.3676 1.8239 60.4235C3.42365 59.1769 5.28656 58.4982 7.2118 57.9927C11.7363 56.8061 16.344 56.5222 20.9955 56.7969C24.3104 56.9931 27.5792 57.4456 30.7117 58.6021C31.5196 58.9046 32.3036 59.2672 33.0571 59.6871C33.2111 59.768 33.3474 59.8788 33.4579 60.0131C33.5685 60.1474 33.6512 60.3023 33.701 60.469C33.7509 60.6356 33.767 60.8105 33.7484 60.9835C33.7298 61.1564 33.6769 61.3239 33.5927 61.4761C33.5184 61.6415 33.4105 61.7897 33.2759 61.9112C33.1412 62.0327 32.9828 62.1248 32.8106 62.1817C32.6384 62.2385 32.4562 62.259 32.2757 62.2416C32.0952 62.2243 31.9203 62.1696 31.7621 62.0809C27.3299 59.8648 22.5491 59.5209 17.7268 59.4932C13.8278 59.4724 9.97269 59.8787 6.26072 61.1899C5.93523 61.3053 5.61897 61.4415 5.29579 61.5661C3.55754 62.2333 2.51412 63.2351 2.74266 65.3681C2.95965 67.418 2.79344 69.5095 2.78652 71.5825C2.78652 72.6674 2.2625 73.3023 1.40145 73.2999C0.540404 73.2976 0.0302386 72.6651 0.016388 71.5755C0.0117711 70.2505 0.016388 68.9254 0.016388 67.6004Z" fill="white"/>
<path d="M82.9652 67.672C82.9652 68.9393 82.9652 70.2113 82.9652 71.474C82.9652 72.6467 82.4804 73.2884 81.6009 73.3C80.7214 73.3115 80.2159 72.6651 80.202 71.5109C80.202 69.1494 80.1443 66.7855 80.2274 64.4263C80.2666 63.3667 79.8604 62.6511 78.9924 62.2748C77.4457 61.6031 75.8875 60.8621 74.2555 60.495C67.6653 58.9705 60.8006 59.0973 54.2713 60.8644C53.281 61.1322 52.3437 61.6031 51.3996 62.0186C50.5247 62.4018 49.7721 62.2264 49.3936 61.4923C49.015 60.7582 49.2827 60.0103 50.1322 59.5555C52.3622 58.3551 54.7814 57.7318 57.2607 57.3371C63.3804 56.3583 69.4839 56.4137 75.4974 57.9627C77.2374 58.4484 78.9159 59.1323 80.4998 60.001C82.2219 60.9082 83.143 62.4087 82.9744 64.4771C82.8936 65.5344 82.9652 66.6055 82.9652 67.672Z" fill="white"/>
<path d="M66.4139 27.7082C66.3516 28.5393 66.2938 29.3703 66.2246 30.199C66.1322 31.2817 65.5713 31.8773 64.7241 31.8149C63.8769 31.7526 63.3575 31.0185 63.4822 29.9036C63.807 26.8923 63.4923 23.8465 62.5588 20.9653C62.3279 20.2012 61.9978 19.4625 61.7116 18.7099C61.3607 17.7865 61.6377 17.0155 62.4318 16.7085C63.1751 16.4223 63.8815 16.7755 64.2786 17.6619C65.6614 20.8321 66.3878 24.2496 66.4139 27.7082Z" fill="white"/>
</g>
<defs>
<clipPath id="clip0_16_3895">
<rect width="83" height="80.216" fill="white"/>
</clipPath>
</defs>
</svg>
