<svg width="74" height="74" viewBox="0 0 74 74" fill="none" xmlns="http://www.w3.org/2000/svg">
<g clip-path="url(#clip0_16_3848)">
<path d="M0 37.5775C0.19306 36.2722 0.33207 34.9592 0.561812 33.6597C2.90749 20.3828 13.1764 9.4886 26.3334 6.53238C37.1873 4.09365 47.0372 6.3895 55.7964 13.277C55.9103 13.3659 56.0184 13.4701 56.1361 13.5454C56.169 13.5686 56.2269 13.5589 56.3408 13.5744C56.2694 12.468 56.2365 11.3693 56.1188 10.2919C56.0452 9.76706 56.1012 9.23223 56.2819 8.73409C56.4627 8.23594 56.7626 7.78962 57.1555 7.43411C59.4104 5.22709 61.6307 2.99303 63.8528 0.747391C64.4165 0.179705 65.0111 -0.196822 65.8394 0.133363C66.6676 0.463548 66.8529 1.15095 66.8915 1.94262C66.9456 3.02007 67.017 4.09751 67.0846 5.34294C67.5962 4.84477 68.0152 4.44121 68.436 4.03186C68.8569 3.62251 69.2083 3.2344 69.6176 2.86366C69.7174 2.76452 69.8359 2.68602 69.9661 2.63265C70.0963 2.57929 70.2358 2.5521 70.3765 2.55263C70.5172 2.55317 70.6565 2.58143 70.7863 2.63579C70.9161 2.69015 71.0339 2.76955 71.1331 2.86946C71.2322 2.96936 71.3107 3.08782 71.3641 3.21806C71.4174 3.3483 71.4446 3.48778 71.444 3.62854C71.4435 3.76929 71.4153 3.90855 71.3609 4.03839C71.3066 4.16822 71.2272 4.28607 71.1273 4.38522C70.5191 5.03593 69.8743 5.64996 69.2469 6.28329C69.0828 6.44935 68.9283 6.62506 68.6677 6.90118C69.882 6.97649 70.9844 7.01125 72.0597 7.12517C72.5343 7.15254 72.9947 7.29716 73.3996 7.54611C74.2104 8.12538 74.1718 9.19124 73.3861 9.99642C71.8976 11.5045 70.3937 12.9951 68.8936 14.4935C68.0943 15.2948 67.2757 16.0768 66.4996 16.8994C66.1589 17.2749 65.7314 17.5612 65.2545 17.7332C64.7776 17.9052 64.2658 17.9577 63.764 17.8861C62.6519 17.7741 61.5322 17.7316 60.341 17.6544C61.1982 18.8458 62.0438 19.9213 62.7851 21.0644C67.3723 28.1238 69.1375 35.8339 68.0808 44.1947C67.1778 51.3163 64.05 57.9711 59.1433 63.2104C54.2365 68.4497 47.8014 72.0061 40.755 73.3726C39.3206 73.6506 37.8591 73.8013 36.4131 74.0098H32.077C30.5113 73.7761 28.934 73.6024 27.3818 73.2953C22.0709 72.2438 17.0924 69.9254 12.8694 66.5372C12.2381 66.0371 12.1087 65.4424 12.5007 64.9152C12.8926 64.3881 13.5393 64.3166 14.2093 64.8438C17.6572 67.5632 21.6159 69.5626 25.8508 70.7234C40.0832 74.6721 55.6381 67.9294 62.4647 54.8301C68.7198 42.8295 67.0016 28.3188 58.1671 18.5291C57.9915 18.336 57.8119 18.1429 57.6555 17.9788L52.7885 22.8543C53.5781 23.9163 54.4488 24.9783 55.1959 26.1118C57.7982 30.0254 59.2141 34.6079 59.2734 39.3076C59.2888 40.2112 58.9046 40.7306 58.227 40.7403C57.5494 40.75 57.1304 40.2383 57.1092 39.3404C56.9779 33.8064 55.0743 28.9598 51.4757 24.7678C51.383 24.6597 51.2826 24.5612 51.2324 24.5072L46.3827 29.3634C52.4776 36.444 50.9332 46.8458 44.2456 52.2292C41.1694 54.7075 37.285 55.9594 33.3408 55.7437C29.3966 55.528 25.6718 53.8598 22.8842 51.0608C20.0966 48.2617 18.4435 44.5298 18.2434 40.5842C18.0432 36.6386 19.3103 32.7585 21.8004 29.6917C27.2312 23.0165 37.5811 21.5587 44.6954 27.6758L49.574 22.7983C48.8539 22.2306 48.1299 21.6108 47.3577 21.0605C33.8898 11.4543 14.661 19.2686 11.6782 35.5558C11.1142 38.5446 11.1501 41.6156 11.7837 44.5904C12.4173 47.5651 13.636 50.3842 15.3689 52.8835C17.1018 55.3829 19.3144 57.5127 21.8778 59.1489C24.4413 60.7852 27.3045 61.8953 30.3008 62.4147C42.1393 64.5001 53.8542 56.734 56.5165 45.023C56.5532 44.8589 56.5937 44.6948 56.64 44.5326C56.8447 43.8317 57.3486 43.5034 57.9914 43.656C58.5938 43.8027 58.8815 44.353 58.7347 45.0771C56.6671 55.2008 48.1415 63.1523 37.7587 64.6391C25.4975 66.3943 13.6938 58.8792 10.1936 47.091C5.97909 32.895 14.5857 18.2761 29.0903 15.2581C36.9865 13.6149 44.122 15.5227 50.3714 20.6492C50.6127 20.8423 50.8482 21.0547 51.0143 21.1976L56.0338 16.1657C54.5029 15.0457 52.9333 13.7231 51.2073 12.6591C34.8609 2.60492 13.9872 8.60424 5.41922 25.7777C-0.20077 37.0426 1.60241 51.0571 9.90593 60.6672C10.099 60.8854 10.2921 61.094 10.4851 61.3218C10.9079 61.8683 10.8867 62.4804 10.4407 62.8781C9.99475 63.2759 9.31325 63.2875 8.85377 62.7236C7.80545 61.4357 6.73009 60.1652 5.79954 58.7923C2.51184 53.9478 0.559386 48.3219 0.139021 42.482C0.113147 42.2934 0.0737935 42.1069 0.0212574 41.9239L0 37.5775ZM43.0312 29.236C38.3842 24.988 29.8394 24.4531 24.2696 30.1879C22.9823 31.5115 21.974 33.0803 21.3044 34.8011C20.6348 36.5219 20.3176 38.3597 20.3716 40.2054C20.4256 42.0512 20.8498 43.8672 21.6188 45.5459C22.3879 47.2246 23.4863 48.7317 24.8488 49.9777C30.4688 55.1796 39.3824 54.7413 44.4715 49.0277C49.7652 43.0844 48.4987 34.8781 44.6993 30.9583L39.8573 35.8126C41.8091 39.6918 41.2705 43.0748 38.3128 45.3069C37.0146 46.2729 35.4174 46.7502 33.8021 46.655C32.1868 46.5597 30.6568 45.898 29.4811 44.7862C28.3053 43.6743 27.5591 42.1835 27.3736 40.5759C27.188 38.9682 27.5751 37.3465 28.4668 35.9961C29.3385 34.6477 30.6679 33.6596 32.2102 33.2136C33.2015 32.9064 34.2496 32.8281 35.2756 32.9847C36.3015 33.1412 37.2786 33.5285 38.1333 34.1173L43.0312 29.236ZM38.1719 37.3207C37.0946 38.4078 36.0753 39.4562 35.0327 40.4816C34.4999 41.0048 33.8879 41.0126 33.4342 40.5549C32.9805 40.0973 32.994 39.4949 33.5172 38.9561C34.3551 38.093 35.2142 37.2531 36.0637 36.3996C36.2567 36.2065 36.4363 36.0134 36.6428 35.7952C35.9104 35.3492 35.07 35.1121 34.2125 35.1094C33.355 35.1068 32.5131 35.3388 31.7779 35.7803C31.0428 36.2218 30.4424 36.856 30.0417 37.6143C29.641 38.3726 29.4554 39.226 29.5048 40.0822C29.5543 40.9384 29.8369 41.7648 30.3222 42.4719C30.8075 43.179 31.4769 43.7399 32.258 44.0938C33.039 44.4478 33.902 44.5813 34.7535 44.48C35.605 44.3786 36.4126 44.0463 37.0888 43.5189C38.9634 42.0668 39.4673 39.464 38.1719 37.3207ZM64.7582 2.91C62.5651 5.10351 60.5225 7.14448 58.4915 9.1951C58.3571 9.32922 58.2784 9.50929 58.2714 9.69907C58.3428 11.0507 58.4432 12.4023 58.5455 13.9162C60.7348 11.7246 62.8083 9.65465 64.8721 7.57121C64.9754 7.44402 65.0277 7.28298 65.0188 7.11938C64.9513 5.77354 64.8605 4.43156 64.7582 2.91ZM71.0809 9.23758C69.6774 9.14103 68.4592 9.07345 67.2429 8.96918C67.0328 8.94219 66.8192 8.96715 66.621 9.04188C66.4227 9.11662 66.2458 9.23884 66.1058 9.39784C64.2891 11.2515 62.4376 13.0666 60.6113 14.9125C60.4665 15.0554 60.3352 15.2137 60.1209 15.4493C61.5747 15.5497 62.9068 15.6424 64.2427 15.7177C64.4587 15.7155 64.6657 15.6313 64.8219 15.4821C66.8626 13.4547 68.8974 11.4176 71.0848 9.23372L71.0809 9.23758Z" fill="white"/>
</g>
<defs>
<clipPath id="clip0_16_3848">
<rect width="74" height="74" fill="white"/>
</clipPath>
</defs>
</svg>
