<svg width="68" height="81" viewBox="0 0 68 81" fill="none" xmlns="http://www.w3.org/2000/svg">
<g clip-path="url(#clip0_16_3863)">
<path d="M38.9197 66.0331C35.6186 68.7017 32.3753 68.6728 29.1002 66.0505C28.8923 66.4692 28.7248 66.7812 28.5746 67.0988C26.6396 71.2404 24.7065 75.38 22.7753 79.5176C21.9436 81.2938 20.9068 81.444 19.5984 79.9912C18.1255 78.3566 16.693 76.6902 15.1652 75.1104C14.7254 74.6752 14.1514 74.4014 13.5364 74.3335C11.2721 74.1718 8.99916 74.1429 6.73201 74.0591C5.06559 73.9956 4.46199 73.057 5.16091 71.5494C7.30676 66.9284 9.47568 62.2873 11.6331 57.6548C11.815 57.2678 11.9826 56.8721 12.2338 56.306C11.3399 55.7145 10.4165 55.1689 9.46702 54.6714C4.34067 52.2714 3.45116 50.8591 3.93058 45.2938C4.1212 43.1046 3.73419 41.1494 2.30748 39.4367C1.9638 39.0237 1.69808 38.5472 1.39483 38.0996C-0.424662 35.4079 -0.543093 32.6122 1.4468 30.0649C3.53777 27.3905 4.30314 24.5775 3.81505 21.2158C3.36451 18.1111 4.73057 15.6042 7.67353 14.4288C10.9371 13.1263 13.0454 10.9631 14.3652 7.72844C15.6013 4.68728 18.1919 3.47428 21.3862 3.91038C24.4446 4.32915 27.0612 3.71978 29.5739 1.82519C32.7825 -0.58925 35.1768 -0.623914 38.3681 1.78186C40.9674 3.73132 43.6273 4.32049 46.7436 3.90749C49.7963 3.50316 52.3493 4.65839 53.5335 7.56958C54.9111 10.966 57.1436 13.1811 60.5313 14.553C63.2548 15.6562 64.3667 18.0187 64.228 20.9328C64.1847 21.8685 64.1212 22.8042 64.0288 23.7342C63.8555 25.4671 64.4302 26.9804 65.4295 28.3783C66.0601 29.2522 66.6388 30.1626 67.1623 31.1046C68.2482 33.0858 68.2251 35.1075 67.1623 37.0916C66.7546 37.8963 66.271 38.6603 65.7183 39.3732C64.2511 41.1609 63.7717 43.1768 64.075 45.4382C64.177 46.2243 64.2243 47.0166 64.2165 47.8093C64.2165 50.2815 63.1565 52.1847 60.9818 53.4035C59.5695 54.192 58.1284 54.9284 56.6988 55.688C55.9392 56.0923 55.8006 56.5544 56.2136 57.4209C58.4287 62.0245 60.563 66.6627 62.7205 71.2981C63.5869 73.1436 63.0382 74.0129 61.0078 74.0822C58.7753 74.1573 56.5399 74.2064 54.3132 74.3479C53.798 74.397 53.3154 74.6225 52.9472 74.9862C51.4078 76.6035 49.9349 78.2873 48.4418 79.9479C47.0728 81.4671 46.0504 81.3313 45.1956 79.5061C43.2702 75.3992 41.3515 71.2914 39.4396 67.1826C39.3183 66.8505 39.1594 66.5299 38.9197 66.0331ZM22.7984 7.02375C22.475 7.00064 22.1515 6.9833 21.828 6.95731C18.6511 6.70316 17.9898 7.07283 16.5948 9.93493C16.5313 10.0649 16.462 10.192 16.4129 10.3248C15.2779 13.2822 13.2013 15.2346 10.2959 16.5024C6.8302 18.01 6.51539 18.6483 6.93127 22.3999C7.25763 25.3631 6.64247 27.9941 4.84319 30.4288C2.40276 33.7299 2.40856 34.4548 4.86632 37.7819C6.64249 40.1819 7.24897 42.7811 6.93705 45.7068C6.52117 49.5595 6.87354 50.2064 10.4259 51.7487C13.0974 52.9039 15.0093 54.6945 16.228 57.3775C18.0706 61.4209 18.3854 61.5624 22.8389 61.132C25.4382 60.875 27.7717 61.3573 29.8656 62.9515C30.5789 63.4945 31.3616 63.9508 32.1212 64.4302C32.6723 64.8132 33.3273 65.0185 33.9984 65.0185C34.6696 65.0185 35.3246 64.8132 35.8757 64.4302C36.7912 63.8526 37.701 63.275 38.5847 62.6541C40.1192 61.5533 41.9772 60.9963 43.8641 61.0714C45.1926 61.1205 46.5212 61.2302 47.8526 61.2678C48.4176 61.309 48.9822 61.1831 49.4763 60.9058C49.9703 60.6285 50.3718 60.212 50.6309 59.7082C51.1681 58.732 51.6995 57.7472 52.1501 56.7306C53.1378 54.501 54.836 53.0339 57.0021 52.0432C57.3948 51.8613 57.7905 51.6909 58.1804 51.5003C61.0454 50.1053 61.441 49.3169 61.1724 46.1544C61.0439 44.7943 61.0439 43.425 61.1724 42.0649C61.3804 40.0952 62.6396 38.5992 63.7024 37.0079C65.3948 34.4895 65.5103 33.5768 63.6649 31.1681C62.5944 29.8332 61.818 28.2871 61.3865 26.6313C60.955 24.9754 60.8781 23.2471 61.1609 21.5595C61.5363 18.9429 60.9616 18.1198 58.6252 16.9068C58.114 16.644 57.6028 16.3783 57.0743 16.153C55.9214 15.6802 54.8735 14.9837 53.9912 14.1039C53.1089 13.224 52.4095 12.1782 51.9335 11.0266C51.5898 10.2382 51.1768 9.47573 50.7782 8.71616C50.114 7.43096 49.0454 6.8389 47.6013 6.88511C46.81 6.9111 46.0158 6.93998 45.2302 7.0324C42.4028 7.36742 39.9335 6.58764 37.6403 4.90966C34.3508 2.501 33.6692 2.50389 30.3739 4.90966C28.1038 6.56743 25.6403 7.43385 22.7984 7.02375ZM54.0966 59.9133C51.636 64.179 49.5594 64.5804 45.4641 64.2021C45.0365 64.1412 44.6051 64.1104 44.1732 64.1097C43.3356 64.1501 42.4981 64.2425 41.493 64.3263L47.2692 76.7277C47.9681 75.9537 48.667 75.3501 49.1522 74.6107C50.9226 71.9046 53.3428 70.758 56.5602 71.2057C57.4266 71.3241 58.293 71.223 59.3732 71.223L54.0966 59.9133ZM8.61794 71.3125C10.7782 71.3125 12.6093 71.3328 14.4403 71.3125C14.9238 71.2911 15.4052 71.3877 15.843 71.594C16.2808 71.8003 16.6617 72.1101 16.953 72.4967C18.14 73.9407 19.4252 75.2692 20.7508 76.7421C22.6916 72.5775 24.566 68.5515 26.527 64.306C25.4006 64.2338 24.4822 64.1212 23.5638 64.1299C22.5241 64.1299 21.4843 64.2772 20.4417 64.3147C17.8425 64.41 15.9681 63.2115 14.6222 61.0685C14.4085 60.7248 14.2064 60.3696 13.9262 59.9133L8.61794 71.3125Z" fill="white"/>
<path d="M55.3243 34.1372C55.1366 46.1285 45.5366 55.5841 33.7387 55.3964C30.9303 55.3716 28.1546 54.7917 25.5712 53.6899C22.9878 52.5882 20.6477 50.9865 18.6858 48.9768C16.7238 46.9672 15.1787 44.5894 14.1393 41.9803C13.0999 39.3712 12.5868 36.5823 12.6294 33.7741C12.6721 30.9659 13.2697 28.1939 14.3878 25.6175C15.506 23.0412 17.1226 20.7114 19.1447 18.7623C21.1668 16.8132 23.5544 15.2833 26.17 14.2605C28.7857 13.2377 31.5778 12.7424 34.3857 12.8029C45.9842 12.9675 55.5062 22.6657 55.3243 34.1372ZM15.7286 34.0101C15.6102 44.0029 23.8153 52.2773 33.9236 52.3812C43.8759 52.4823 52.1358 44.335 52.2831 34.2671C52.4333 24.2657 44.3236 15.9596 34.2875 15.8267C31.871 15.7854 29.4703 16.2245 27.2249 17.1187C24.9795 18.0128 22.9341 19.3441 21.2075 21.0353C19.4809 22.7264 18.1074 24.7437 17.1669 26.9701C16.2263 29.1965 15.7375 31.5875 15.7286 34.0043V34.0101Z" fill="white"/>
<path d="M31.9337 38.7437C35.3445 35.3213 38.4926 32.1588 41.6463 29.0051C41.9352 28.7162 42.2095 28.2975 42.533 28.2542C43.1106 28.1762 43.8269 28.1675 44.2918 28.4477C44.9359 28.8404 44.9792 29.6029 44.5807 30.27C44.4203 30.5081 44.2322 30.7262 44.0203 30.9199C40.5354 34.4106 37.0475 37.8984 33.5568 41.3834C32.4016 42.5386 31.7748 42.5386 30.6514 41.4065C28.2023 38.969 25.7648 36.517 23.3128 34.0823C22.6774 33.4498 22.4232 32.7624 22.9315 31.9596C23.4889 31.0931 24.5373 31.0498 25.4211 31.9191C27.3465 33.8118 29.2565 35.7198 31.151 37.6433C31.4387 37.9903 31.7003 38.3581 31.9337 38.7437Z" fill="white"/>
</g>
<defs>
<clipPath id="clip0_16_3863">
<rect width="68" height="80.9819" fill="white"/>
</clipPath>
</defs>
</svg>
