<svg width="69" height="77" viewBox="0 0 69 77" fill="none" xmlns="http://www.w3.org/2000/svg">
<g clip-path="url(#clip0_16_3876)">
<path d="M51.6004 0C55.5711 0.88347 58.4458 3.40086 61.0704 6.30341C61.2689 6.52378 61.5568 6.73621 61.6144 6.99431C61.7077 7.41718 61.8129 7.98697 61.6144 8.28675C61.4159 8.58654 60.7706 8.87242 60.4391 8.77316C58.6523 8.23116 57.1851 8.75529 55.718 9.7956C53.9729 11.0305 52.0411 11.9616 49.8732 12.1939C47.3995 12.4599 45.9025 11.8703 43.6492 9.87303C42.0847 10.5758 41.4415 12.0152 41.6976 14.2407C43.0873 14.4393 44.4929 14.6021 45.8668 14.8681C55.8947 16.8078 64.374 25.4241 66.129 35.4262C66.264 36.1965 65.8888 36.8159 65.1999 36.9568C64.5626 37.0899 63.9571 36.6789 63.8102 35.9324C63.3329 33.5001 62.4824 31.1562 61.2888 28.9838C61.0744 28.5986 60.8421 28.2234 60.588 27.7926C59.5278 28.9997 58.8012 30.3318 58.152 31.7315C57.6993 32.7241 57.2288 33.7029 56.6848 34.642C55.6922 36.3434 54.2369 37.2368 52.2179 37.1673C50.7586 37.1176 49.2974 37.0958 47.8382 37.1296C46.113 37.1693 44.761 37.9773 43.7445 39.3452C42.7515 40.6508 42.079 42.1714 41.781 43.7844C41.7591 43.9075 41.7393 44.0286 41.7075 44.1477C41.509 44.8604 40.9948 45.2575 40.3734 45.1662C39.7043 45.0689 39.2894 44.513 39.3807 43.7526C39.613 41.9559 40.294 40.322 41.2311 38.7893C43.0834 35.7478 45.8449 34.5248 49.3252 34.7035C50.3377 34.7551 51.3562 34.7353 52.3687 34.7849C52.7923 34.8225 53.2176 34.7356 53.5925 34.535C53.9674 34.3343 54.2755 34.0286 54.4791 33.6552C54.9519 32.9014 55.3699 32.1145 55.7299 31.3006C56.5736 29.2975 57.6418 27.4451 59.1625 25.8112C57.7881 24.0211 56.1564 22.4442 54.3203 21.1318C53.7247 21.6778 53.1708 22.2476 52.5554 22.73C50.9294 24.0046 49.1366 24.4969 47.1374 23.6949C45.7139 23.1231 44.5227 23.3653 43.2938 24.348C42.3185 25.156 41.1834 25.7488 39.963 26.0875C38.7426 26.4262 37.4644 26.5033 36.2121 26.3135C34.3519 26.0475 32.9185 24.9536 31.771 23.548C30.7783 22.327 29.9266 20.9869 28.9617 19.6289C26.6037 20.9243 24.489 22.6199 22.7119 24.6399C22.9283 24.7987 23.1249 24.9278 23.3075 25.0786C24.4987 26.0713 25.7475 27.0243 26.8652 28.1023C28.9399 30.1055 29.5176 32.5276 28.4535 35.2296C27.8182 36.8357 27.0518 38.3922 26.3074 39.9527C26.2436 40.0883 26.1535 40.2098 26.0424 40.3103C25.9313 40.4108 25.8013 40.4883 25.66 40.5381C25.5187 40.588 25.3689 40.6093 25.2193 40.6008C25.0697 40.5923 24.9233 40.5542 24.7886 40.4887C24.6448 40.4284 24.5147 40.3395 24.4062 40.2275C24.2978 40.1154 24.2131 39.9826 24.1574 39.8369C24.1018 39.6912 24.0762 39.5358 24.0823 39.3799C24.0884 39.2241 24.1261 39.0711 24.193 38.9303C24.5563 38.0647 25.009 37.2368 25.3842 36.3732C25.7594 35.5095 26.1068 34.5864 26.4185 33.683C26.8414 32.4462 26.4999 31.3523 25.7018 30.3616C24.459 28.819 22.9045 27.6496 21.217 26.5359C20.0836 28.0471 19.1532 29.7004 18.4494 31.4535C17.2695 34.3488 16.6627 37.4456 16.6626 40.5721C16.6625 41.0269 16.4991 41.4665 16.2021 41.811C15.9678 42.0373 15.3245 42.1306 15.0664 41.9658C14.713 41.7415 14.3219 41.1995 14.3458 40.8183C14.4728 38.7754 14.5245 36.6948 14.9632 34.7055C16.1022 29.5999 18.748 24.9539 22.5577 21.3693C26.3675 17.7846 31.1658 15.4264 36.3313 14.6001C37.2802 14.4492 38.2431 14.3777 39.1921 14.2705C39.4939 12.0867 38.8189 10.5738 37.2544 9.877C34.201 12.9701 30.7148 12.8252 26.8374 10.7902C26.0331 10.3538 25.2542 9.87193 24.5047 9.34692C23.3929 8.58455 22.2017 8.34035 20.9093 8.71161C20.262 8.89625 19.6684 8.93794 19.2495 8.31455C18.8306 7.69115 19.0947 7.14519 19.5354 6.63893C21.6021 4.27044 23.8654 2.13621 26.7779 0.833839C27.5819 0.474495 28.4575 0.273977 29.3012 0.00198726H31.2369C32.0569 0.252138 32.8947 0.458611 33.6948 0.764352C36.4742 1.82849 37.6416 4.02624 37.9314 6.83945C37.9572 7.09357 37.9989 7.43504 38.1677 7.56806C38.9281 8.17358 39.7381 8.71756 40.4885 9.25559C41.0643 8.80293 41.648 8.26293 42.3111 7.85395C42.5142 7.75282 42.686 7.59833 42.8081 7.40703C42.9301 7.21572 42.9978 6.99482 43.004 6.76797C43.3097 3.3413 44.9516 1.37583 48.2631 0.40104C48.7296 0.264052 49.2021 0.135006 49.6707 0.00397453L51.6004 0ZM31.2369 18.5489C32.0708 20.1213 32.9661 21.5666 34.2566 22.7181C35.1857 23.5519 36.2419 24.1257 37.5324 24.0423C39.1524 23.9371 40.6831 23.4963 41.914 22.4243C43.7187 20.8519 45.6861 20.6553 47.87 21.4078C49.5734 21.9915 51.2014 21.3264 52.1384 19.7599C46.1666 16.1883 37.9255 15.5928 31.2369 18.5489ZM23.3452 6.06319C24.5206 6.73423 25.6085 7.40725 26.7421 7.99094C27.9138 8.62627 29.1247 9.1866 30.3673 9.66854C31.9556 10.2502 33.4565 9.89685 34.8959 8.81286C33.8635 8.37609 32.9324 7.98697 32.0033 7.58593C31.1833 7.23056 30.8696 6.63496 31.1317 5.95796C31.3938 5.28097 32.1005 5.06258 32.9443 5.40604C33.7384 5.73164 34.5326 6.06517 35.4279 6.4404C35.3783 6.12672 35.3604 5.91032 35.3068 5.70583C34.7291 3.5041 31.9516 1.9615 29.4243 2.45982C26.9347 2.9502 25.0824 4.51265 23.3452 6.06319ZM45.4677 6.4404C46.4326 6.04333 47.2863 5.67208 48.1519 5.33656C48.8785 5.05464 49.5774 5.36038 49.7898 6.01157C50.0022 6.66275 49.7104 7.23453 48.9818 7.55417C48.0248 7.97307 47.056 8.36815 45.9879 8.81683C47.5761 9.97428 49.2061 10.3138 50.8619 9.55537C53.143 8.51109 55.3487 7.30401 57.6318 6.1426C56.1726 4.8025 54.636 3.57955 52.7698 2.82115C50.8142 2.02702 48.9778 2.3943 47.2267 3.39888C46.1269 4.03418 45.6325 5.08442 45.4677 6.4404Z" fill="white"/>
<path d="M24.3324 67.9021C24.7731 68.3131 25.2576 68.732 25.7023 69.1906C26.3574 69.8636 26.3574 70.4572 25.7023 71.1303C24.2225 72.6285 22.7335 74.1175 21.2353 75.5972C20.5345 76.2901 19.9428 76.2881 19.25 75.5972C12.9988 69.3593 6.7563 63.1228 0.522381 56.8875C-0.174468 56.1907 -0.172483 55.5951 0.522381 54.9022C2.00343 53.4053 3.49309 51.9169 4.99135 50.4372C5.66239 49.7741 6.25402 49.7741 6.93102 50.4372C7.38764 50.8819 7.80655 51.3663 8.30884 51.9024C9.23201 50.9693 10.0619 50.1255 10.8898 49.2877C11.7633 48.4102 12.6329 47.5287 13.5183 46.6631C18.9204 41.3762 27.3024 41.5588 32.4385 47.0919C32.5783 47.2579 32.7547 47.3893 32.9538 47.4758C33.1528 47.5623 33.3692 47.6014 33.586 47.5902C37.648 47.5724 41.7119 47.6121 45.7739 47.5664C47.795 47.5426 49.3951 48.2196 50.5387 50.0322C50.7531 49.8337 50.9477 49.657 51.1343 49.4743C54.009 46.6035 56.858 43.707 59.7625 40.8659C62.7286 37.9654 67.5589 39.1685 68.7382 43.0836C69.3834 45.2317 68.7858 47.086 67.2214 48.6425C63.4387 52.4291 59.6553 56.2125 55.8713 59.9926L54.0845 61.7794C51.6544 64.2174 48.7241 65.4205 45.2756 65.4105C40.0224 65.3986 34.7693 65.488 29.5201 65.3708C27.3382 65.3113 25.6566 65.9406 24.3324 67.9021ZM22.7005 65.9744C22.735 65.9552 22.7676 65.9325 22.7977 65.9069C22.9963 65.7083 23.1948 65.5336 23.3775 65.3311C24.8684 63.6317 26.7346 62.9686 28.992 62.9984C34.4635 63.0659 39.9371 63.0202 45.4106 63.0202C46.6876 63.0418 47.9555 62.8028 49.1369 62.3177C50.3184 61.8327 51.3885 61.1117 52.2818 60.1991C56.7144 55.7744 61.1443 51.3445 65.5716 46.9093C66.8918 45.5851 66.9613 43.7486 65.7503 42.5416C64.5392 41.3345 62.6373 41.3504 61.3031 42.6746C58.026 45.9292 54.7542 49.2023 51.4877 52.494C51.2669 52.719 51.1082 52.9974 51.0271 53.302C50.4772 55.5752 48.6626 57.0642 46.3179 57.0742C40.894 57.088 35.4701 57.0742 30.0382 57.0742C29.0992 57.0742 28.5572 56.6314 28.5532 55.883C28.5492 55.1345 29.0932 54.6918 30.0303 54.6918H30.5504C35.7262 54.6918 40.9019 54.7057 46.0777 54.6719C46.6649 54.6651 47.2407 54.5093 47.7513 54.2193C48.6467 53.6892 48.9624 52.5833 48.6487 51.6125C48.3072 50.5663 47.4575 49.9409 46.2822 49.9389C41.9144 49.9389 37.5646 49.9111 33.2048 49.9568C32.7561 49.9854 32.3072 49.9033 31.8977 49.7178C31.4882 49.5322 31.1305 49.2489 30.8562 48.8926C29.9105 47.7913 28.7499 46.8948 27.4454 46.258C26.1409 45.6213 24.7201 45.2578 23.2701 45.1897C21.8201 45.1217 20.3715 45.3506 19.0131 45.8624C17.6548 46.3742 16.4152 47.1581 15.3706 48.166C14.6381 48.8688 13.9313 49.5974 13.2106 50.3141L10.1175 53.3934L22.7005 65.9744ZM23.1233 70.2031L5.96615 53.0261C5.02511 53.9691 4.03641 54.9578 3.11919 55.879C8.80318 61.5749 14.5606 67.3224 20.2823 73.0382L23.1233 70.2031Z" fill="white"/>
</g>
<defs>
<clipPath id="clip0_16_3876">
<rect width="69" height="76.1154" fill="white"/>
</clipPath>
</defs>
</svg>
