<svg width="70" height="80" viewBox="0 0 70 80" fill="none" xmlns="http://www.w3.org/2000/svg">
<g clip-path="url(#clip0_65_30)">
<path d="M48.9486 73.5936C48.9486 74.8175 48.9486 75.954 48.9486 77.0884C48.9382 78.6953 48.2742 79.3572 46.6714 79.3572H23.3045C21.658 79.3572 21.0149 78.7016 21.0003 77.0384C21.0003 75.9748 21.0003 74.9091 20.9857 73.8454C20.971 73.7599 20.9494 73.6757 20.9212 73.5936H2.36461C0.680675 73.5936 0.0354181 72.9691 0.0437441 71.3039C0.0437441 69.1496 -0.110289 66.9723 0.145736 64.8513C0.661947 60.5571 2.98907 57.4224 6.84817 55.4429C7.05632 55.3367 7.26447 55.2347 7.47262 55.1348C7.49135 55.1348 7.50175 55.0974 7.56836 55.0099C5.57844 52.7994 4.72503 50.1996 5.29328 47.2251C5.68835 45.1059 6.88012 43.2184 8.62368 41.9506C10.3393 40.6569 12.4641 40.0257 14.6077 40.1729C16.7514 40.3201 18.7699 41.2359 20.2926 42.752C23.2379 45.6786 24.0851 50.9323 20.5007 54.9142C21.7496 55.8259 23.1442 56.6168 24.2474 57.6951C25.3506 58.7733 26.1895 60.1575 27.2177 61.5021L28.6061 60.8444C26.5475 58.5547 25.6732 55.9341 26.279 52.9347C26.6733 50.9258 27.7826 49.128 29.4012 47.8745C31.0678 46.5377 33.1592 45.8443 35.2943 45.9207C37.4294 45.9971 39.4659 46.8383 41.0326 48.2908C44.5524 51.5401 44.6877 55.9508 41.3865 60.8485L42.9081 61.6124C44.2013 58.6488 46.5956 56.3037 49.5855 55.0724C47.4312 52.6578 46.6007 49.9082 47.3604 46.7797C47.8469 44.7643 49.0555 42.9973 50.7574 41.8132C52.4369 40.6037 54.4859 40.0183 56.5509 40.1581C58.6158 40.298 60.5672 41.1543 62.0683 42.5792C62.9207 43.3657 63.605 44.3167 64.0798 45.3749C64.5545 46.4332 64.8099 47.5766 64.8304 48.7363C64.9033 50.6846 64.4537 51.8044 62.3867 55.0994C64.0873 55.8116 65.6086 56.8922 66.8411 58.2633C68.7656 60.3778 69.8509 63.1227 69.8926 65.9815C69.9301 67.7716 69.9093 69.5638 69.9051 71.3539C69.9051 72.9296 69.2536 73.5832 67.6883 73.5832H48.9548L48.9486 73.5936ZM46.5361 76.9968C46.5361 74.9986 46.6485 73.0753 46.5132 71.1686C46.3697 69.2409 45.639 67.4035 44.4194 65.9037C43.1999 64.4039 41.5501 63.3138 39.6921 62.7802C39.232 62.6619 38.7469 62.6844 38.2996 62.8447C36.1458 63.6692 33.7625 63.6647 31.6118 62.8322C31.2154 62.6718 30.7788 62.639 30.3629 62.7385C26.7598 63.873 24.314 66.248 23.6375 69.9738C23.2316 72.2135 23.4294 74.5635 23.3649 76.8657C23.3649 76.9011 23.4273 76.9406 23.4752 76.9926L46.5361 76.9968ZM20.9649 71.2165C21.0107 71.1332 21.0523 71.0916 21.0565 71.0458C21.3212 68.122 22.6245 65.3898 24.7303 63.3443C24.8927 63.184 24.9156 62.7198 24.8115 62.4825C23.5751 59.685 21.4811 57.8345 18.5462 56.9645C18.1547 56.8776 17.746 56.9117 17.3743 57.0623C15.199 57.9137 12.7827 57.9137 10.6074 57.0623C10.1838 56.9079 9.72284 56.8883 9.28768 57.0061C6.08009 58.0239 3.89243 60.1283 2.83503 63.3401C1.98994 65.9191 2.51865 68.573 2.36045 71.2165H20.9649ZM67.5593 71.2165C67.5593 69.3931 67.6009 67.6092 67.5593 65.8254C67.4469 61.7373 64.5224 58.0385 60.5717 56.9686C60.1811 56.8759 59.7718 56.9013 59.3956 57.0415C57.2004 57.9167 54.7531 57.9167 52.5579 57.0415C52.184 56.895 51.7738 56.8681 51.3839 56.9645C48.4886 57.8345 46.4175 59.6704 45.1394 62.4201C44.9313 62.8509 44.9604 63.1382 45.3309 63.4962C46.9678 65.0728 48.108 67.0936 48.6114 69.3098C48.7592 69.9343 48.8403 70.5712 48.9527 71.2123L67.5593 71.2165ZM35.015 61.1295C38.6035 61.1295 41.5343 58.203 41.5176 54.6582C41.501 51.1134 38.5119 48.2055 34.9442 48.2492C31.3766 48.2929 28.4271 51.1904 28.4437 54.7289C28.4604 58.2675 31.4057 61.14 35.0088 61.1275L35.015 61.1295ZM20.5174 48.9257C20.5064 47.2066 19.8141 45.5619 18.5925 44.3524C17.3708 43.1428 15.7194 42.467 14.0002 42.4731C10.4242 42.4731 7.46013 45.3872 7.45805 48.9257C7.45596 52.4643 10.4075 55.3784 13.9939 55.3659C14.8453 55.3719 15.6895 55.21 16.4783 54.8896C17.267 54.5691 17.9848 54.0962 18.5907 53.4981C19.1966 52.9 19.6786 52.1883 20.0092 51.4037C20.3398 50.6191 20.5125 49.7771 20.5174 48.9257ZM55.9445 55.3617C59.5372 55.3617 62.4846 52.4892 62.5054 48.9444C62.5262 45.3996 59.5725 42.4918 55.9882 42.4751C54.2694 42.4624 52.6156 43.1315 51.3893 44.336C50.163 45.5405 49.4642 47.1819 49.4461 48.9007C49.4505 50.618 50.1366 52.2632 51.3536 53.4748C52.5706 54.6863 54.2189 55.365 55.9362 55.3617H55.9445Z" fill="#CE761D"/>
<path d="M20.8795 14.3499C19.591 14.3499 18.4837 14.3395 17.3763 14.3499C17.079 14.3577 16.7835 14.3011 16.5101 14.1839C16.2367 14.0668 15.9918 13.8919 15.7923 13.6713C13.9377 11.7834 12.0581 9.92461 10.1827 8.05126C9.75595 7.63496 9.42708 7.18327 9.70184 6.54009C9.97659 5.8969 10.4949 5.80532 11.111 5.81156C12.5847 5.83029 14.0605 5.81156 15.6404 5.81156C15.6404 5.58051 15.6404 5.2558 15.6404 4.93108C15.6029 3.68218 15.4988 2.43328 15.5509 1.19687C15.5675 0.780572 15.9005 0.208162 16.2461 0.0541311C16.5916 -0.0998999 17.2639 0.0416401 17.5449 0.312235C19.6077 2.28758 21.6205 4.3108 23.6063 6.36316C23.8721 6.7035 24.0184 7.12194 24.0226 7.55377C24.0788 8.68611 24.0413 9.82469 24.0413 11.1673C29.4053 7.40391 35.0191 6.45266 41.018 8.55706C45.1165 9.99538 48.2325 12.6909 50.4014 16.4564C54.7268 23.9602 52.9533 33.4851 46.2093 39.0302C39.6442 44.4296 29.9736 44.3214 23.5376 38.8928C16.7706 33.1812 14.7724 22.6842 20.8795 14.3499ZM23.2399 15.349C18.7064 20.151 17.6802 29.5178 23.8394 35.9558C25.2668 37.4429 26.9775 38.629 28.8708 39.4442C30.764 40.2593 32.8013 40.6869 34.8625 40.7019C36.9237 40.7168 38.967 40.3187 40.8718 39.5311C42.7767 38.7435 44.5045 37.5823 45.9532 36.1161C52.1062 29.8591 51.8647 19.7847 45.4225 13.8961C38.8574 7.89306 29.6031 9.16694 25.1154 13.4798L27.6319 15.9776C29.9846 14.1102 32.9611 13.2108 35.9543 13.463C38.9474 13.7152 41.7315 15.1 43.7385 17.3347C45.7066 19.4983 46.7983 22.3173 46.8006 25.242C46.8029 28.1668 45.7157 30.9875 43.751 33.1541C41.832 35.2882 39.2011 36.6499 36.3506 36.9843C33.5002 37.3188 30.6256 36.6032 28.2646 34.9713C25.8673 33.3572 24.1667 30.8984 23.5022 28.0857C22.5842 24.289 23.4522 20.8462 25.7252 17.8655L23.2399 15.349ZM29.1951 17.8468C30.2587 18.9084 31.3328 19.9533 32.3715 21.0315C32.7316 21.4062 32.9959 21.5206 33.5558 21.3187C34.2473 21.0385 35.0039 20.9595 35.7384 21.091C36.4728 21.2225 37.1551 21.5591 37.7063 22.0618C38.2885 22.5293 38.7292 23.1495 38.9792 23.8531C39.2291 24.5566 39.2785 25.3158 39.1218 26.0458C39.0154 26.6218 38.7902 27.1692 38.4604 27.6532C38.1306 28.1372 37.7035 28.5471 37.2064 28.8568C36.7093 29.1664 36.153 29.3691 35.5732 29.4517C34.9934 29.5343 34.4027 29.4951 33.8389 29.3367C33.2755 29.1781 32.7511 28.9044 32.2988 28.5329C31.8465 28.1615 31.4761 27.7002 31.211 27.1784C30.946 26.6565 30.7921 26.0853 30.7589 25.501C30.7258 24.9166 30.8142 24.3317 31.0185 23.7832C31.0997 23.5501 31.1704 23.1588 31.0476 23.0339C29.909 21.837 28.7247 20.6797 27.5528 19.5078C24.9988 22.3574 24.366 28.0545 28.298 31.9864C30.0635 33.7506 32.4552 34.7447 34.951 34.7517C37.4469 34.7587 39.8442 33.7781 41.6196 32.0239C42.5069 31.1618 43.2158 30.1332 43.7055 28.9971C44.1953 27.8609 44.4565 26.6394 44.4741 25.4023C44.4917 24.1652 44.2654 22.9368 43.8081 21.7872C43.3508 20.6376 42.6715 19.5893 41.809 18.7023C37.9478 14.6892 32.2133 15.2241 29.1951 17.8468ZM13.7379 8.31352C15.0034 9.57283 16.1524 10.7197 17.3076 11.8521C17.4 11.941 17.521 11.9942 17.649 12.0019C19.0165 12.0123 20.382 12.0019 21.7142 12.0019C21.7142 10.6302 21.7142 9.26477 21.7142 7.89722C21.7068 7.79507 21.6641 7.69867 21.5934 7.62454C20.4299 6.46307 19.2601 5.30576 18.0778 4.13387C18.0237 4.23587 17.982 4.27749 17.982 4.31912C17.982 5.15172 18.0049 5.98432 18.0133 6.81692C18.0133 7.92012 17.6324 8.30936 16.5271 8.30728L13.7379 8.31352ZM36.8425 25.2507C36.8426 25.004 36.7933 24.7597 36.6976 24.5323C36.6019 24.3049 36.4617 24.0989 36.2852 23.9265C36.1087 23.7541 35.8995 23.6187 35.6699 23.5283C35.4403 23.438 35.195 23.3944 34.9484 23.4002C34.7017 23.3988 34.4572 23.4468 34.2293 23.5414C34.0015 23.6361 33.7949 23.7754 33.6219 23.9512C33.4488 24.127 33.3127 24.3357 33.2216 24.5649C33.1306 24.7942 33.0864 25.0394 33.0916 25.2861C33.0955 25.7853 33.297 26.2627 33.652 26.6138C34.0069 26.9649 34.4865 27.1611 34.9858 27.1594C35.4856 27.1523 35.9623 26.9474 36.3114 26.5897C36.6606 26.232 36.8538 25.7505 36.8488 25.2507H36.8425Z" fill="#CE761D"/>
</g>
<defs>
<clipPath id="clip0_65_30">
<rect width="69.9155" height="79.3572" fill="white"/>
</clipPath>
</defs>
</svg>
