<svg width="66" height="79" viewBox="0 0 66 79" fill="none" xmlns="http://www.w3.org/2000/svg">
<g clip-path="url(#clip0_65_14)">
<path d="M54.4084 0C55.0476 0.147039 55.6971 0.263445 56.324 0.447244C61.3213 1.9258 64.5602 5.19741 65.661 10.2805C66.774 15.4064 65.1198 19.7359 61.1293 23.1321C60.9277 23.2764 60.767 23.4707 60.6632 23.696C60.5594 23.9212 60.5159 24.1695 60.5371 24.4166C60.5759 25.4112 60.5595 26.4078 60.5371 27.4023C60.5228 28.1967 60.0919 28.6562 59.4057 28.6562C58.7195 28.6562 58.2804 28.1886 58.2559 27.4023C58.2314 26.6161 58.2559 25.8257 58.2559 24.9517C54.725 26.4057 51.2553 26.4078 47.7467 24.9517V36.2246L49.789 34.5909C50.3424 34.1416 50.8897 33.6841 51.4534 33.2451C52.4928 32.4282 53.4772 32.4282 54.5167 33.2287C55.503 33.9925 56.4608 34.7971 57.4329 35.5793C57.6617 35.7651 57.9026 35.9367 58.26 36.2083C58.26 35.1627 58.26 34.256 58.26 33.3492C58.2518 33.0734 58.2855 32.798 58.3601 32.5323C58.4255 32.2802 58.5848 32.0626 58.8053 31.924C59.0259 31.7854 59.2911 31.7364 59.5466 31.7869C60.1389 31.8666 60.5248 32.2362 60.535 32.8673C60.5534 34.0395 60.5514 35.2137 60.535 36.388C60.542 36.7995 60.428 37.204 60.2073 37.5514C59.9866 37.8988 59.6688 38.1738 59.2934 38.3424C58.9342 38.5441 58.5233 38.6348 58.1126 38.6032C57.7019 38.5715 57.3098 38.419 56.9857 38.1647C56.2689 37.6358 55.5929 37.0517 54.8965 36.4942C54.6923 36.3268 54.4758 36.1715 54.1266 35.904V36.9639C54.1266 49.0599 54.0858 61.1538 54.1572 73.2498C54.1736 75.8026 53.3792 77.5956 50.8897 78.4452H3.35124C0.66574 77.324 0.0122393 76.3356 0.0122393 73.3887C0.0122393 53.9632 0.00815541 34.5378 -1.34157e-05 15.1123C-0.0173343 14.7473 0.0443047 14.3828 0.180699 14.0437C0.317093 13.7047 0.52503 13.3991 0.790319 13.1477C4.936 9.03472 9.05104 4.89108 13.1804 0.761745C13.4499 0.494216 13.7604 0.26957 14.0524 0.0245055H25.5173C25.9891 0.432947 26.4302 0.861811 26.1443 1.57658C25.8584 2.29135 25.2702 2.32811 24.6269 2.32607C21.9026 2.31586 19.1763 2.32607 16.4581 2.32607H15.5493V3.21443C15.5493 5.84275 15.5493 8.47107 15.5493 11.0994C15.5493 13.8584 13.889 15.5391 11.1321 15.5596C8.50782 15.58 5.88562 15.5596 3.26138 15.5596H2.29747V73.7624C2.29747 75.5351 2.91013 76.1355 4.69501 76.1355H49.4724C51.243 76.1355 51.825 75.5657 51.825 73.8196C51.825 61.4929 51.825 49.1661 51.825 36.8393V35.8877L49.307 37.9299C48.6943 38.4323 48.0143 38.7304 47.1913 38.5221C46.0313 38.226 45.4084 37.3764 45.4064 36.0102C45.4064 32.1055 45.4064 28.2008 45.3839 24.2961C45.3737 23.91 45.2123 23.5434 44.9346 23.275C38.2709 17.7856 38.3281 8.07284 45.0755 2.68754C45.1756 2.60994 45.2798 2.52621 45.5269 2.30973H44.5936C39.9836 2.30973 35.3737 2.30973 30.7638 2.30973C29.8223 2.30973 29.2403 1.92376 29.3444 1.22328C29.4077 0.792377 29.8305 0.4064 30.0919 0.0142969L54.4084 0ZM42.3063 13.0517C42.3085 15.8877 43.4367 18.6068 45.443 20.6111C47.4493 22.6155 50.1694 23.7412 53.0054 23.7406C55.8417 23.7277 58.5579 22.5945 60.5623 20.5877C62.5668 18.581 63.6969 15.8635 63.7066 13.0272C63.6996 10.178 62.5624 7.44801 60.5446 5.43637C58.5268 3.42474 55.7934 2.29585 52.9442 2.29748C50.108 2.31477 47.3946 3.45706 45.4 5.47347C43.4054 7.48988 42.2927 10.2155 42.3063 13.0517ZM13.2478 4.28863L4.35601 13.2069C6.65962 13.2069 9.12251 13.2396 11.5854 13.1906C12.5922 13.1722 13.2192 12.435 13.2376 11.3526C13.2682 8.96324 13.2478 6.56978 13.2478 4.28863Z" fill="#CE761D"/>
<path d="M27.1287 21.4432C29.42 21.4432 31.7114 21.4554 34.0027 21.4432C34.602 21.4239 35.1984 21.535 35.7505 21.7688C36.3027 22.0025 36.7975 22.3534 37.2008 22.7972C38.8101 24.5044 40.4398 26.1893 42.0429 27.9027C43.3887 29.3322 43.4459 31.0722 42.1613 32.5875C38.1586 37.3104 34.1423 42.0252 30.1123 46.7318C28.4541 48.6637 25.7543 48.6985 24.0939 46.7727C20.0177 42.0429 15.9666 37.2914 11.9408 32.5181C10.7154 31.0558 10.8135 29.273 12.1266 27.8904C13.7236 26.2076 15.3329 24.5371 16.9176 22.8441C17.3259 22.3871 17.8292 22.0249 18.3922 21.7829C18.9553 21.5409 19.5644 21.4249 20.177 21.4432C22.4949 21.4575 24.8108 21.4432 27.1287 21.4432ZM30.7372 31.4337H23.4282C24.6351 36.0143 25.8237 40.5276 27.0143 45.0409L27.1573 45.0266L30.7372 31.4337ZM14.0116 31.4112L24.0184 43.1518L24.1287 43.0906C23.0994 39.1913 22.0728 35.2982 21.049 31.4112H14.0116ZM40.1804 31.3806C37.8441 31.3806 35.7345 31.3948 33.6249 31.3683C33.1287 31.3683 33.0572 31.6297 32.9592 32.0034C32.0504 35.4997 31.1212 38.9919 30.2063 42.484C30.1613 42.6597 30.1389 42.8394 30.1082 43.017L30.2267 43.0681L40.1804 31.3806ZM27.0858 24.6413L24.1144 29.032H30.0368L27.0858 24.6413ZM34.6787 23.7978H29.2852C30.2716 25.256 31.1988 26.6263 32.177 28.0681L34.6787 23.7978ZM24.8761 23.7978H19.4908L21.9925 28.0599L24.8761 23.7978ZM14.2076 29.032H19.8993L17.7223 25.3234L14.2076 29.032ZM39.9721 29.032L36.4411 25.3275L34.2703 29.032H39.9721Z" fill="#CE761D"/>
<path d="M27.0531 63.5923H11.1627C10.9074 63.5923 10.6522 63.5923 10.3989 63.58C10.126 63.5743 9.86585 63.463 9.67318 63.2696C9.48051 63.0761 9.37026 62.8156 9.36556 62.5426C9.32991 62.2719 9.40034 61.9978 9.56211 61.7778C9.72387 61.5578 9.96445 61.4089 10.2335 61.3622C10.4824 61.3093 10.737 61.288 10.9912 61.2989C21.71 61.2989 32.4302 61.2989 43.1518 61.2989C43.4557 61.2867 43.7597 61.3225 44.0524 61.4051C44.6079 61.5868 44.8509 62.0178 44.7815 62.5977C44.766 62.8559 44.6549 63.0991 44.4699 63.2799C44.2849 63.4608 44.0393 63.5663 43.7808 63.576C43.5274 63.595 43.2731 63.5998 43.0191 63.5902L27.0531 63.5923Z" fill="#CE761D"/>
<path d="M27.1246 53.9326H11.079C10.8257 53.9457 10.5717 53.9396 10.3193 53.9142C9.73931 53.8223 9.33086 53.422 9.39213 52.8931C9.43705 52.4847 9.78832 52.0762 10.111 51.774C10.2927 51.6085 10.691 51.6535 10.9932 51.6514C21.7121 51.6514 32.4323 51.6514 43.1539 51.6514C43.4577 51.6383 43.7617 51.6735 44.0545 51.7556C44.6079 51.9394 44.9388 52.4091 44.7529 52.938C44.6161 53.326 44.1995 53.6467 43.8401 53.906C43.6706 54.0286 43.3458 53.9448 43.0926 53.9448C37.7706 53.9394 32.448 53.9353 27.1246 53.9326Z" fill="#CE761D"/>
<path d="M27.0368 56.6324H43.0027C43.2574 56.6239 43.5123 56.6286 43.7665 56.6467C44.3792 56.7141 44.7447 57.0653 44.7876 57.6841C44.827 57.9544 44.7585 58.2293 44.5968 58.4494C44.4352 58.6695 44.1934 58.8172 43.9237 58.8604C43.6496 58.9151 43.3699 58.937 43.0905 58.9258H11.079C10.9768 58.9258 10.8747 58.9258 10.7726 58.9258C9.89039 58.8992 9.34308 58.4602 9.34308 57.7679C9.34308 57.0756 9.86588 56.6324 10.7604 56.6324C16.1886 56.6297 21.614 56.6297 27.0368 56.6324Z" fill="#CE761D"/>
<path d="M27.0429 66.1021C29.7141 66.1021 32.3873 66.1021 35.0585 66.1021C35.6937 66.1021 36.2267 66.2389 36.4615 66.9067C36.5122 67.0525 36.5315 67.2074 36.5181 67.3612C36.5048 67.515 36.4592 67.6643 36.3842 67.7992C36.3092 67.9342 36.2065 68.0518 36.083 68.1443C35.9594 68.2368 35.8177 68.3023 35.6671 68.3363C35.3682 68.3967 35.0631 68.4214 34.7583 68.4098C29.6447 68.4098 24.5303 68.4098 19.4152 68.4098C19.2886 68.4098 19.16 68.4098 19.0334 68.4098C18.1348 68.373 17.6426 67.9462 17.663 67.2212C17.6834 66.4962 18.1593 66.1225 19.0272 66.1184C21.6984 66.096 24.3717 66.1021 27.0429 66.1021Z" fill="#CE761D"/>
<path d="M27.1225 15.6229C28.2682 15.6229 29.4139 15.6229 30.5596 15.6229C31.501 15.6229 32.0463 16.0661 32.032 16.7931C32.0177 17.5201 31.4908 17.9143 30.6024 17.9163C28.2594 17.9163 25.9169 17.9163 23.5752 17.9163C22.6705 17.9163 22.1641 17.5079 22.1457 16.789C22.1273 16.0702 22.6501 15.627 23.6099 15.6229C24.7801 15.6188 25.9503 15.6229 27.1225 15.6229Z" fill="#CE761D"/>
<path d="M61.0456 12.9925C61.0516 15.1342 60.2082 17.1909 58.7003 18.7118C57.1924 20.2327 55.143 21.0937 53.0013 21.1061C50.8736 21.094 48.8357 20.2467 47.3266 18.7467C45.8174 17.2467 44.9577 15.214 44.9326 13.0864C44.9222 10.9454 45.7585 8.88704 47.2591 7.35995C48.7598 5.83287 50.8033 4.96084 52.9442 4.93392C57.3676 4.88695 61.019 8.52003 61.0456 12.9925ZM58.7502 13.113C58.7758 11.5795 58.1916 10.0986 57.1259 8.99573C56.0601 7.89286 54.6001 7.25826 53.0667 7.2314C51.5471 7.22443 50.0852 7.81245 48.9936 8.86966C47.902 9.92686 47.2676 11.3693 47.226 12.8883C47.1947 14.4224 47.772 15.9064 48.8316 17.0162C49.8912 18.1259 51.347 18.7711 52.8809 18.8107C56.0422 18.8883 58.6848 16.3233 58.7502 13.113Z" fill="#CE761D"/>
</g>
<defs>
<clipPath id="clip0_65_14">
<rect width="66" height="78.4207" fill="white"/>
</clipPath>
</defs>
</svg>
