<svg width="66" height="74" viewBox="0 0 66 74" fill="none" xmlns="http://www.w3.org/2000/svg">
<g clip-path="url(#clip0_65_26)">
<rect width="66" height="73.7647" fill="white"/>
<path d="M21.3934 31.7425C20.9086 31.534 20.4973 31.3651 20.094 31.1805C19.071 30.7415 18.2253 29.9716 17.6924 28.9945C17.1595 28.0175 16.9705 26.8897 17.1556 25.7924C17.2371 25.2284 17.2788 24.6584 17.3722 24.0983C17.5821 22.9673 17.37 21.7987 16.7762 20.8134C16.4503 20.2613 16.1801 19.6754 15.904 19.0935C14.9543 17.0817 15.3079 14.8931 16.8973 13.352C20.2093 10.1426 19.3709 11.4136 20.4854 7.13572C20.7317 6.10328 21.3094 5.17986 22.1303 4.50667C22.9512 3.83349 23.9701 3.44758 25.0311 3.40796C25.8258 3.3603 26.6324 3.39804 27.4013 3.24313C28.1649 3.08716 28.9013 2.81947 29.5868 2.44872C30.298 2.06343 30.9079 1.49146 31.5735 1.01283C33.4172 -0.321778 35.6066 -0.351565 37.4623 0.947291C38.1437 1.43585 38.7695 2.03166 39.5026 2.42886C40.2109 2.80953 40.9714 3.08389 41.7596 3.24313C42.5285 3.40201 43.349 3.36229 44.1298 3.40995C45.1645 3.46176 46.1561 3.84038 46.9619 4.49133C47.7677 5.14229 48.3461 6.03201 48.6139 7.03245C48.8265 7.79309 49.0291 8.56168 49.1702 9.3402C49.3368 10.2992 49.838 11.1682 50.5848 11.7929C51.1649 12.2954 51.7172 12.8336 52.2576 13.3817C52.9904 14.0965 53.4814 15.0222 53.662 16.0296C53.8426 17.037 53.7038 18.0756 53.2649 19.0002C53.1918 19.1846 53.1048 19.3632 53.0046 19.5344C51.8225 21.3358 51.5285 23.2463 51.8642 25.4031C52.3371 28.4278 51.455 29.8915 48.6735 31.389C48.7748 31.6432 48.8722 31.9113 48.9854 32.1735C50.1298 34.8308 51.2768 37.488 52.4265 40.1453C52.6709 40.7113 52.8715 41.2754 52.4146 41.8156C51.9874 42.324 51.4351 42.2664 50.845 42.1353C49.4185 41.8176 47.9821 41.5554 46.5576 41.2416C46.1086 41.1423 45.8404 41.2178 45.5921 41.6388C44.8391 42.9178 44.0285 44.1631 43.2556 45.4321C42.9437 45.9465 42.5841 46.3675 41.9166 46.3079C41.2808 46.2523 41.0046 45.7936 40.7821 45.2673C39.7629 42.9059 38.7397 40.5465 37.7464 38.1772C37.6706 37.959 37.5391 37.7645 37.3648 37.6129C37.1905 37.4614 36.9796 37.3581 36.753 37.3133C35.6781 37.0392 34.6232 36.5467 33.5007 37.0213C33.1548 37.1585 32.8641 37.4065 32.6742 37.7264C31.1722 40.8742 29.7079 44.0399 28.2437 47.2056C27.9914 47.7498 27.7013 48.2264 27.0298 48.2562C26.3583 48.286 26.0364 47.8312 25.7305 47.3129C24.9954 46.022 24.2265 44.7509 23.5053 43.4521C23.2868 43.0548 23.0603 42.9575 22.6212 43.0429C21.1391 43.3349 19.6411 43.5811 18.1629 43.8373C17.6046 43.9347 17.0583 43.9426 16.6768 43.4282C16.2954 42.9138 16.4384 42.4074 16.6768 41.8871C18.1338 38.773 19.5868 35.6563 21.0358 32.5369C21.151 32.2966 21.2563 32.0483 21.3934 31.7425ZM19.4682 26.5232C19.4404 27.7446 20.0146 28.6741 21.3854 29.1269C24.0159 29.9948 25.9907 31.5697 27.2344 34.0502C27.2697 34.1152 27.3095 34.1776 27.3536 34.2369C28.1483 35.4146 29.1695 35.9032 30.4907 35.3709C33.2722 34.2548 35.9583 34.3124 38.7159 35.4007C39.8841 35.8615 40.9013 35.4226 41.6364 34.3899C42.1093 33.7225 42.5483 33.0334 42.9874 32.3443C43.6645 31.2685 44.6645 30.4344 45.8444 29.961C46.5755 29.6592 47.3046 29.3513 48.0298 29.0177C49.2417 28.4576 49.7821 27.4487 49.6073 26.126C49.5377 25.5858 49.4742 25.0437 49.3907 24.5054C49.1305 22.8372 49.345 21.2563 50.2113 19.7787C50.5232 19.2445 50.7854 18.6824 51.0477 18.1224C51.594 16.9566 51.4093 15.91 50.5033 14.9964C50.2638 14.7453 50.0097 14.5086 49.7424 14.2874C47.994 12.8972 46.9093 11.1415 46.6152 8.91321C46.5543 8.52204 46.4654 8.13575 46.349 7.75734C46.0152 6.56573 45.1748 5.88254 43.9391 5.79317C43.2238 5.74154 42.5066 5.69387 41.7874 5.66408C40.4424 5.61046 39.2046 5.26688 38.1258 4.41885C37.4821 3.91837 36.8225 3.42584 36.157 2.95913C35.098 2.20444 34.051 2.19252 32.9781 2.93927C32.2907 3.42187 31.6212 3.93227 30.9517 4.44467C29.9312 5.2049 28.6995 5.62898 27.4271 5.65813C26.6861 5.69189 25.943 5.73756 25.202 5.79119C23.8868 5.88254 23.0583 6.58559 22.7324 7.86459C22.5675 8.51203 22.4106 9.16146 22.2795 9.81685C22.0133 11.2665 21.2607 12.5822 20.1457 13.5466C19.6232 14.0014 19.1245 14.486 18.6278 14.9706C17.6861 15.8921 17.4993 16.9566 18.0715 18.1482C18.3815 18.7956 18.6973 19.4411 19.0371 20.0726C19.6721 21.2041 19.9277 22.5092 19.7662 23.7964C19.6669 24.7001 19.5775 25.6136 19.4682 26.5232ZM29.8947 37.9786C27.2483 37.6708 26.4298 37.1524 24.9795 34.932C24.5344 34.2508 24.0715 33.5835 23.5391 32.799C22.2318 35.6112 20.9821 38.2983 19.6609 41.1403C20.9762 40.9159 22.0967 40.7312 23.2113 40.5326C24.2225 40.3519 24.5066 40.473 25.0331 41.3707C25.6291 42.3776 26.2132 43.3865 26.8629 44.4987L29.8947 37.9786ZM49.5099 39.4184C48.4629 36.9915 47.4656 34.6758 46.3848 32.1754C45.8821 32.6819 45.445 33.0374 45.1172 33.4743C44.5987 34.1654 44.1576 34.9142 43.6788 35.6351C43.0438 36.6231 42.0797 37.3548 40.957 37.7005L40.2139 37.9329C40.8775 39.4721 41.5172 40.9477 42.2126 42.5603L44.094 39.5416C44.6722 38.6141 44.9762 38.489 46.0629 38.7134C47.1497 38.9378 48.2762 39.1702 49.5099 39.4264V39.4184Z" fill="#D07518"/>
<path d="M54.8523 65.4532C55.2497 65.4532 55.647 65.4413 56.0444 65.4532C57.5523 65.5108 58.6272 66.5256 58.6868 68.0251C58.7258 69.1395 58.7073 70.2551 58.6311 71.3676C58.6017 72.021 58.3169 72.6367 57.838 73.0824C57.3591 73.5281 56.7243 73.7681 56.0702 73.7508C50.6676 73.723 45.2642 73.674 39.8603 73.6038C38.4457 73.5859 37.4126 72.4618 37.3768 70.9684C37.353 69.9297 37.3768 68.885 37.4225 67.8463C37.498 66.3767 38.545 65.3738 40.0053 65.3142C40.3232 65.3023 40.6391 65.3142 41.0404 65.3142C41.0404 64.9607 41.0404 64.6707 41.0404 64.3807C41.0861 61.3342 41.0623 58.2857 41.2033 55.2451C41.2868 53.4219 42.1689 51.9145 43.5437 50.6772C46.0033 48.4509 48.4252 46.1829 50.8391 43.9069C52.4126 42.4233 54.5921 42.4432 56.6682 44.1313C56.6682 43.752 56.6682 43.4739 56.6682 43.1959C56.6682 39.4046 56.6444 35.6133 56.6583 31.822C56.6583 30.2212 56.9086 28.6562 57.7272 27.2442C58.7007 25.566 60.4212 24.8272 62.2093 25.288C63.1075 25.5041 63.9093 26.0106 64.4901 26.7288C65.071 27.447 65.3985 28.3367 65.4219 29.26C65.4596 30.6502 65.5073 32.0404 65.547 33.4306C65.694 38.6082 65.8192 43.7857 65.996 48.9613C66.0815 51.4875 65.2669 53.6086 63.4669 55.3861C60.7669 58.0374 58.1185 60.7523 55.4007 63.3997C54.7748 64.0074 54.6715 64.6191 54.8523 65.4532ZM52.3927 65.3579C52.4106 65.0675 52.4106 64.7763 52.3927 64.486C52.2695 63.493 52.653 62.7701 53.3722 62.069C56.2232 59.2866 59.0046 56.4347 61.8457 53.6264C63.0576 52.4348 63.6676 51.0089 63.6179 49.2989C63.4192 42.6378 63.2404 35.9787 63.0219 29.3176C62.9996 28.904 62.8449 28.5086 62.5808 28.1895C61.6887 27.1687 60.3139 27.2819 59.7993 28.5172C59.36 29.5347 59.1141 30.6251 59.0742 31.7326C58.9927 35.5954 59.0384 39.4602 59.0603 43.325C59.0702 44.9952 58.7007 46.582 57.6079 47.8233C55.7483 49.9404 53.7596 51.9463 51.7927 53.9681C51.6844 54.081 51.5538 54.1702 51.4091 54.2298C51.2645 54.2895 51.109 54.3184 50.9525 54.3147C50.796 54.3109 50.6421 54.2746 50.5004 54.2081C50.3588 54.1416 50.2326 54.0463 50.1298 53.9283C49.6848 53.4596 49.6907 52.7943 50.1715 52.2581C50.4179 51.982 50.7 51.7358 50.9662 51.4637C52.1881 50.2343 53.4318 49.0268 54.6179 47.7617C55.3212 47.011 55.3013 46.1729 54.6854 45.5771C54.0695 44.9813 53.1318 45.0369 52.4742 45.6486C50.0106 47.9425 47.553 50.2423 45.0715 52.5143C44.2232 53.2908 43.6351 54.2282 43.6013 55.3404C43.5 58.6272 43.5079 61.9181 43.4742 65.2069C43.4742 65.2288 43.496 65.2506 43.5517 65.3499L52.3927 65.3579ZM56.3106 71.2822C56.3106 70.4043 56.2808 69.5166 56.3225 68.6308C56.3503 68.035 56.1735 67.8086 55.5278 67.8166C53.3722 67.8404 51.2166 67.8166 49.0609 67.7927C46.2099 67.7669 43.3609 67.7212 40.5179 67.7113C40.2775 67.7113 39.8325 67.896 39.8265 68.0132C39.7728 69.0658 39.7947 70.1243 39.7947 71.2822H56.3106Z" fill="#D07518"/>
<path d="M9.33577 44.1849C10.651 42.8682 12.0576 42.4889 13.6232 43.0152C14.2244 43.2336 14.7752 43.5714 15.2424 44.0082C17.4556 46.026 19.5417 48.1927 21.8464 50.0993C23.998 51.8867 24.9378 54.0832 24.9576 56.7783C24.9755 59.3303 24.9576 61.8823 24.9576 64.4364V65.3102C25.355 65.3102 25.6609 65.3102 25.9768 65.3102C27.451 65.3658 28.502 66.3588 28.5815 67.8285C28.6351 68.8433 28.645 69.8602 28.6311 70.877C28.6073 72.5473 27.5325 73.5959 25.8616 73.6118C20.6801 73.6621 15.5 73.7097 10.3212 73.7548C8.40001 73.7707 7.38279 72.7816 7.34107 70.8552C7.3212 70.0131 7.3106 69.1704 7.30928 68.327C7.30928 66.5396 8.37617 65.4651 10.1722 65.4413C10.4921 65.4413 10.8099 65.4413 11.1457 65.4413C11.3285 64.625 11.2431 64.0094 10.6132 63.3977C7.89736 60.7523 5.24901 58.0354 2.54901 55.3742C0.745038 53.5987 -0.0754895 51.4836 0.00596749 48.9573C0.220537 42.3697 0.393384 35.7801 0.582125 29.1905C0.619439 28.2823 0.95071 27.4108 1.52612 26.7071C2.10153 26.0033 2.88996 25.5053 3.77285 25.288C5.56093 24.8232 7.29338 25.56 8.26491 27.2263C9.05961 28.5907 9.32583 30.106 9.33577 31.6551C9.35961 35.4286 9.33577 39.1881 9.33577 42.9556V44.1849ZM22.494 65.3559C22.5308 65.2637 22.5574 65.1678 22.5735 65.0699C22.5735 62.1981 22.6093 59.3244 22.5517 56.4506C22.5199 54.965 22.1305 53.5907 20.9424 52.5163C18.449 50.2582 16.0013 47.9484 13.5378 45.6546C12.9 45.0588 11.9801 45.0071 11.3801 45.5374C10.7801 46.0677 10.7126 46.8363 11.253 47.6029C11.3846 47.7827 11.5308 47.9514 11.6901 48.1073C13.0371 49.4578 14.394 50.7984 15.7351 52.1528C16.3152 52.7486 16.357 53.4298 15.8781 53.9403C15.3993 54.4507 14.6742 54.4507 14.1 53.8827C12.5841 52.3852 11.0762 50.8798 9.59206 49.3526C7.70464 47.4122 6.8106 45.1343 6.92385 42.3657C7.06292 38.8286 7.01722 35.2816 6.93775 31.7405C6.91391 30.682 6.60994 29.5956 6.25232 28.5867C6.14732 28.2209 5.9041 27.9103 5.57411 27.7206C5.24412 27.5308 4.85323 27.4768 4.48411 27.5699C4.05394 27.646 3.66473 27.8722 3.38571 28.2082C3.10668 28.5443 2.95593 28.9683 2.96027 29.405C2.77153 35.943 2.60067 42.4789 2.38411 49.0149C2.32252 50.8917 2.91855 52.4309 4.26159 53.7476C6.93179 56.3672 9.52451 59.0662 12.2245 61.654C13.208 62.5953 13.8576 63.5446 13.6152 64.9448C13.6098 65.0863 13.6232 65.2279 13.655 65.3658L22.494 65.3559ZM26.2232 71.302C26.2232 70.2256 26.2073 69.2683 26.2232 68.3111C26.2351 67.8086 26.0146 67.6716 25.5497 67.6895C24.755 67.7232 23.9603 67.7133 23.1656 67.7192C18.904 67.757 14.6404 67.8027 10.3788 67.8186C9.81259 67.8186 9.63378 68.0172 9.66557 68.5534C9.71323 69.2209 9.72119 69.8907 9.68941 70.5593C9.65563 71.1868 9.83047 71.4152 10.5159 71.3993C13.4623 71.3338 16.4126 71.3219 19.3609 71.306C21.6298 71.2921 23.8828 71.302 26.2232 71.302Z" fill="#D07518"/>
<path d="M22.7464 18.9268C22.7668 15.7944 24.0274 12.7975 26.2523 10.5916C28.4773 8.38571 31.4855 7.15034 34.6192 7.15566C37.7534 7.18293 40.7492 8.44937 42.9521 10.6782C45.1549 12.907 46.3855 15.9168 46.3748 19.0499C46.3424 22.1695 45.0812 25.1505 42.8645 27.3466C40.6479 29.5427 37.6546 30.7768 34.5338 30.7813C31.3999 30.7661 28.3997 29.51 26.1904 27.2881C23.9811 25.0662 22.7426 22.0596 22.7464 18.9268ZM34.5795 28.4021C37.0719 28.3839 39.4571 27.3856 41.219 25.6232C42.981 23.8608 43.9781 21.4759 43.9947 18.9844C43.9863 16.4798 42.9869 14.0802 41.2146 12.3098C39.4424 10.5393 37.0413 9.54172 34.5358 9.53491C32.0308 9.55327 29.635 10.5621 27.8718 12.341C26.1087 14.1198 25.1217 16.524 25.1265 19.0281C25.1526 21.5192 26.1593 23.8997 27.9286 25.6542C29.6979 27.4087 32.0873 28.396 34.5795 28.4021Z" fill="#D07518"/>
<path d="M40.8656 69.4411C40.9351 68.8969 41.2351 68.5514 41.8232 68.5553C42.4113 68.5593 42.7232 68.9247 42.7669 69.4848C42.7702 69.6145 42.7464 69.7435 42.6972 69.8637C42.648 69.9838 42.5743 70.0923 42.481 70.1825C42.3876 70.2727 42.2765 70.3425 42.1547 70.3875C42.0329 70.4325 41.9031 70.4518 41.7735 70.444C41.2113 70.3805 40.8874 70.0528 40.8656 69.4411Z" fill="#D07518"/>
<path d="M24.3139 68.5633C24.43 68.5705 24.5435 68.601 24.6476 68.6529C24.7517 68.7048 24.8443 68.777 24.9199 68.8654C24.9955 68.9538 25.0526 69.0564 25.0877 69.1673C25.1229 69.2781 25.1354 69.3949 25.1245 69.5107C25.1245 70.1065 24.753 70.4103 24.1947 70.456C24.0653 70.4566 23.9371 70.4311 23.8177 70.3811C23.6984 70.3311 23.5903 70.2575 23.5 70.1648C23.4097 70.0722 23.339 69.9623 23.2921 69.8417C23.2452 69.7211 23.2231 69.5923 23.2271 69.463C23.255 68.9367 23.694 68.5375 24.3139 68.5633Z" fill="#D07518"/>
<path d="M32.1834 21.0438L37.6987 16.045C38.2689 15.5286 38.8291 15.0023 39.4073 14.4979C39.9854 13.9934 40.7325 13.9855 41.1954 14.4979C41.6583 15.0103 41.6106 15.6895 41.0364 16.2178C38.3874 18.6434 35.7265 21.0571 33.0536 23.4588C32.4576 23.997 31.8437 23.9732 31.2656 23.4131C30.1834 22.3539 29.1152 21.2848 28.0609 20.2057C27.5245 19.6536 27.5225 18.9605 27.9954 18.4799C28.4682 17.9993 29.1974 17.9993 29.7834 18.5673C30.5682 19.3716 31.349 20.1958 32.1834 21.0438Z" fill="#D07518"/>
</g>
<defs>
<clipPath id="clip0_65_26">
<rect width="66" height="73.7647" fill="white"/>
</clipPath>
</defs>
</svg>
