<svg width="61" height="76" viewBox="0 0 61 76" fill="none" xmlns="http://www.w3.org/2000/svg">
<g clip-path="url(#clip0_65_15)">
<path d="M47.3669 57.7504L50.5343 55.962C51.6461 55.336 52.7503 54.6845 53.8724 54.0944C56.2364 52.8169 58.7585 53.3943 60.1713 55.4919C61.5841 57.5894 61.1914 60.3053 59.113 61.9506C57.7283 63.0569 56.2339 64.0303 54.7777 65.0344C51.4166 67.3337 48.1167 69.7456 44.6536 71.8891C41.2312 74.0071 37.4825 75.305 33.3614 75.1568C31.5376 75.0611 29.7404 74.6765 28.0367 74.0173C25.4355 73.0771 22.8216 72.1548 20.1745 71.3475C18.9504 70.9745 17.6499 71.1048 16.4028 71.511C16.0381 71.6311 15.8163 71.7665 15.7882 72.2085C15.761 72.6247 15.6263 73.0266 15.3974 73.3751C15.1685 73.7235 14.8533 74.0064 14.4825 74.1962C13.5721 74.7199 12.649 75.2181 11.7105 75.6908C10.3258 76.3806 8.85432 75.9463 8.11222 74.5615C5.50085 69.7396 2.91073 64.9049 0.341864 60.0575C-0.384934 58.6829 0.0868465 57.2164 1.43333 56.4423C2.32334 55.9313 3.21845 55.4587 4.14161 54.986C4.52302 54.7628 4.95795 54.6479 5.39963 54.6538C5.84131 54.6596 6.27305 54.786 6.64843 55.0192C7.07941 55.2747 7.41347 55.2236 7.8215 55.0652C11.7309 53.5987 15.727 52.587 19.9399 52.5103C20.3887 52.5103 20.835 52.5103 21.2762 52.5103C21.4521 51.468 21.2762 51.1077 20.4117 50.6913C19.6346 50.3158 19.0069 49.6882 18.6308 48.9103C18.2546 48.1324 18.152 47.2499 18.3395 46.4062C18.5271 45.5625 18.9939 44.8072 19.664 44.2627C20.3342 43.7183 21.1683 43.4169 22.031 43.4073C25.0071 43.3843 27.9857 43.4073 30.9566 43.4073H31.9002C31.9384 42.6178 31.9894 41.8565 31.9971 41.1079C31.9971 40.9674 31.8415 40.8039 31.7217 40.6889C30.9566 39.9403 30.1916 39.1841 29.3755 38.4713C29.1505 38.297 28.8718 38.2066 28.5875 38.2158C27.0643 38.3105 25.5513 37.9087 24.2748 37.0706C22.9984 36.2325 22.0269 35.003 21.5057 33.5659C21.4678 33.4737 21.4363 33.3789 21.4113 33.2823C21.2034 32.3218 20.793 31.4168 20.2076 30.6281C19.6223 29.8394 18.8754 29.1851 18.0171 28.7091C17.7154 28.5292 17.4319 28.3204 17.1704 28.0857C16.4819 27.4955 16.5558 26.6499 17.3795 26.259C23.0894 23.5661 30.6123 25.4925 31.5457 33.8086C31.5891 34.1919 31.5585 34.5904 32.1807 34.5495C32.214 34.3653 32.237 34.1794 32.2496 33.9926C32.2955 31.8363 32.3159 29.6799 32.3847 27.5262C32.4 27.0152 32.1782 26.9207 31.7574 26.8083C25.4763 25.1552 21.3705 19.7312 21.4751 13.2521C21.5873 6.42798 26.9427 0.687166 33.7873 0.0586652C37.2088 -0.262163 40.6246 0.72756 43.347 2.82857C46.0694 4.92959 47.8962 7.98587 48.4596 11.3821C49.0231 14.7784 48.2813 18.2623 46.3836 21.1326C44.486 24.003 41.5734 26.0464 38.2322 26.8517C38.018 26.9028 37.8064 26.9615 37.5539 27.028C37.6508 29.289 37.7452 31.5118 37.8395 33.7371L38.0435 33.8214C38.2248 33.4931 38.3808 33.1515 38.5102 32.7994C38.8723 31.5552 39.0508 30.2446 39.5634 29.0617C40.3676 27.19 41.7604 25.633 43.5297 24.628C45.299 23.6229 47.3477 23.2249 49.3637 23.4946C50.8159 23.7223 52.2458 24.0745 53.6378 24.5472C53.859 24.6311 54.0583 24.7641 54.2209 24.9362C54.3834 25.1083 54.5049 25.3151 54.5763 25.541C54.6375 25.8732 54.2192 26.3433 53.926 26.6754C53.6466 26.9641 53.3218 27.205 52.9646 27.3882C51.159 28.4102 50.1594 30.007 49.5626 31.9563C48.4661 35.4719 46.0154 37.3369 42.3457 37.6282C42.0131 37.672 41.7063 37.8311 41.4786 38.0778C40.5605 39.0998 39.7317 40.2112 38.7805 41.205C38.171 41.8437 38.0282 42.508 38.2475 43.4124H39.0126C41.8407 43.4124 44.6689 43.4124 47.497 43.4124C49.5779 43.4124 51.1259 44.7026 51.4651 46.6852C51.7762 48.5043 50.6669 50.2263 48.7593 50.9314C48.563 51.003 48.2978 51.2099 48.2723 51.3862C47.9586 53.4557 47.6781 55.5328 47.3669 57.7504ZM42.8047 61.8203C42.6644 61.7258 42.5854 61.6619 42.4987 61.6159C42.1289 61.4064 41.7617 61.1918 41.3843 60.9977C35.8682 58.1541 30.0029 56.2558 23.9411 54.9835C20.1796 54.1915 16.4742 54.728 12.8198 55.6963C11.3127 56.0948 9.83613 56.6033 8.27543 57.081L15.0614 69.7507C17.9253 68.5499 20.7049 69.043 23.4438 69.9908C25.285 70.6244 27.088 71.3679 28.9012 72.0756C31.3806 73.0574 34.0902 73.3014 36.7047 72.7782C39.7776 72.1855 42.5701 70.8799 45.1202 69.1656C48.6548 66.8074 52.095 64.3113 55.5759 61.8638C56.341 61.3323 57.1315 60.8418 57.8379 60.2593C59.0161 59.268 59.2048 57.8143 58.3939 56.6263C57.5829 55.4382 56.2568 55.1623 54.8797 55.9288C51.6895 57.6993 48.5043 59.5056 45.3421 61.294C45.1411 61.4147 44.9934 61.6074 44.929 61.8331C44.4674 64.1325 42.8557 65.7421 40.5707 66.0997C39.7804 66.2223 38.9809 66.2762 38.1812 66.2607C34.3254 66.1789 30.6174 65.2388 26.9401 64.1785C26.2516 63.9766 25.9787 63.4784 26.1343 62.8704C26.2898 62.2623 26.81 62.0043 27.4986 62.178C28.3682 62.3952 29.2276 62.6711 30.0998 62.8832C33.16 63.6215 36.2431 64.2934 39.4283 64.1453C41.0298 64.0814 42.2105 63.4222 42.8047 61.8203ZM35.0063 25.1016C37.2818 25.1147 39.51 24.4506 41.4082 23.1933C43.3065 21.9361 44.7893 20.1424 45.6687 18.0397C46.548 15.937 46.7842 13.6201 46.3474 11.3827C45.9106 9.14534 44.8205 7.08831 43.2152 5.4725C41.6099 3.85669 39.5617 2.75489 37.3306 2.30681C35.0994 1.85874 32.7856 2.08459 30.6827 2.95571C28.5798 3.82683 26.7825 5.30398 25.5187 7.19984C24.2549 9.0957 23.5816 11.3249 23.5841 13.6046C23.5841 16.6445 24.7857 19.5607 26.9263 21.7153C29.0669 23.8699 31.972 25.0874 35.0063 25.1016ZM23.352 51.1052C23.4056 51.4731 23.4668 51.7669 23.4923 52.0658C23.5356 52.5768 23.7702 52.7888 24.3109 52.9063C30.8725 54.332 37.2275 56.3529 43.1617 59.5695C43.812 59.9221 44.98 59.3523 45.0973 58.6012C45.3523 56.9201 45.5869 55.2364 45.8266 53.5527C45.9414 52.7505 46.0511 51.9483 46.1684 51.1052H23.352ZM34.8482 48.9718C39.0746 48.9718 43.3003 48.9718 47.5251 48.9718C48.6369 48.9718 49.4045 48.2488 49.4096 47.2575C49.4101 47.0251 49.3638 46.795 49.2736 46.5809C49.1833 46.3669 49.0509 46.1732 48.8843 46.0115C48.7177 45.8499 48.5203 45.7235 48.3038 45.6399C48.0874 45.5564 47.8563 45.5174 47.6245 45.5253C39.124 45.5151 30.6234 45.5151 22.1228 45.5253C22.023 45.5244 21.9233 45.5312 21.8245 45.5457C21.4512 45.607 21.1077 45.7873 20.8449 46.0597C20.5821 46.3322 20.414 46.6824 20.3658 47.0582C20.2204 48.1364 21.0645 48.9769 22.3294 48.9795C26.4981 48.9812 30.671 48.9786 34.8482 48.9718ZM5.67936 56.4704L5.35294 56.7668C5.19483 56.8332 5.02907 56.8894 4.87606 56.9712C4.14926 57.3569 3.43267 57.7683 2.69312 58.1362C2.12188 58.4198 2.00202 58.7749 2.3208 59.3395C2.86398 60.2976 3.37146 61.2761 3.89169 62.247C5.85022 65.9081 7.81895 69.5667 9.75708 73.233C10.086 73.8564 10.4405 74.0148 11.0628 73.6392C11.7692 73.2151 12.5087 72.8446 13.2381 72.4614C13.7098 72.2059 13.8118 71.884 13.5594 71.4139C11.0296 66.6925 8.5041 61.9702 5.98283 57.2471C5.8672 56.9941 5.76588 56.7348 5.67936 56.4704ZM51.2483 25.9958C48.5757 25.2293 46.0485 25.2932 43.7993 26.9896C41.3077 28.87 40.5376 31.5424 40.5452 34.5393C40.5452 35.1499 40.7799 35.362 41.3434 35.4412C42.5913 35.6454 43.8712 35.4099 44.9653 34.775C46.0593 34.1401 46.8999 33.1449 47.344 31.9589C48.1932 29.685 48.8741 27.3192 51.2483 25.9958ZM19.8965 27.6386C20.0436 27.6757 20.187 27.7262 20.325 27.7893C21.6868 28.6759 22.4952 29.9661 23.0052 31.4786C23.1812 31.9895 23.3673 32.5159 23.5764 33.0115C23.9875 34.0304 24.7269 34.8822 25.6771 35.4313C26.6272 35.9804 27.7334 36.1952 28.8196 36.0416C29.3041 35.9803 29.5617 35.8116 29.5158 35.3007C29.4418 34.478 29.4571 33.6374 29.2812 32.8403C28.154 27.8021 23.6733 26.4966 19.8965 27.6386ZM38.5561 36.4146C38.319 36.6956 38.1277 37.0508 37.8319 37.2424C37.4672 37.4749 37.0082 37.7176 36.6052 37.6946C36.0748 37.6614 35.8784 37.1657 35.8606 36.6369C35.8325 35.8116 35.7892 34.9864 35.7535 34.1612C35.6549 31.8669 35.5546 29.5675 35.4526 27.263H34.4197C34.4197 28.2722 34.4325 29.2201 34.4197 30.1679C34.3891 32.0943 34.3585 34.0232 34.2999 35.9496C34.2693 37.0303 33.6751 37.4085 32.6474 37.0533C32.298 36.9332 31.9512 36.7978 31.5534 36.665L31.2983 37.3574C32.1016 38.1238 32.9049 38.806 33.5935 39.5878C33.8885 39.9649 34.0659 40.4208 34.1035 40.8984C34.152 41.7134 34.1597 42.5303 34.1265 43.346H36.0289C36.0497 43.1071 36.0497 42.8669 36.0289 42.6281C35.8478 41.624 36.2227 40.8652 36.9087 40.1396C37.8089 39.1918 38.6122 38.1494 39.4589 37.1504L38.5561 36.4146Z" fill="#CE761D"/>
<path d="M37.3982 11.3411C37.7935 11.3411 38.1123 11.3181 38.4183 11.3411C38.6195 11.3464 38.8162 11.4024 38.99 11.5041C39.1639 11.6058 39.3093 11.7499 39.4128 11.9229C39.5163 12.0959 39.5746 12.2922 39.5821 12.4938C39.5897 12.6953 39.5464 12.8955 39.4562 13.0758C39.3837 13.235 39.2984 13.3879 39.2012 13.5332C37.286 16.7319 35.3759 19.9408 33.4352 23.1191C33.1777 23.529 32.781 23.832 32.3183 23.9724C31.464 24.1589 30.8596 23.3746 31.0559 22.4395C31.5252 20.1861 32.0174 17.9378 32.4993 15.6869C32.5248 15.572 32.5401 15.4519 32.5656 15.2884C32.1831 15.2628 31.8337 15.2654 31.4946 15.2117C30.6989 15.0891 30.2577 14.4938 30.4235 13.7043C31.0814 10.544 31.7598 7.38868 32.433 4.2334C32.4731 3.92885 32.627 3.65086 32.8636 3.45551C33.1003 3.26016 33.4021 3.16199 33.7081 3.18079C35.2841 3.16291 36.8627 3.14247 38.4361 3.18079C39.4944 3.21145 39.9509 3.97536 39.5888 5.02797C38.9538 6.87259 38.2908 8.707 37.6405 10.5465C37.5665 10.779 37.5028 11.0141 37.3982 11.3411ZM36.8015 13.4642C36.5031 13.4489 36.3552 13.4489 36.2073 13.4335C35.1719 13.3237 34.718 12.6466 35.0189 11.6451C35.0827 11.4305 35.1719 11.2236 35.2484 11.0115L37.2707 5.26302C36.4266 5.26302 35.6845 5.28857 34.9449 5.26302C34.4681 5.24003 34.3074 5.42909 34.2232 5.88641C33.9682 7.28648 33.6393 8.67634 33.3434 10.0687L32.711 13.0733C32.9023 13.1039 32.9992 13.1295 33.0961 13.1346C34.7996 13.2164 35.1082 13.6226 34.746 15.2781C34.5956 15.9756 34.4579 16.6782 34.3151 17.3783L34.4324 17.4166L36.8015 13.4642Z" fill="#CE761D"/>
</g>
<defs>
<clipPath id="clip0_65_15">
<rect width="61" height="76" fill="white"/>
</clipPath>
</defs>
</svg>
